<svg class="svg-chart" width="700" height="467" viewBox="0 0 700 467" fill="none" xmlns="http://www.w3.org/2000/svg">
    <path class="line 1" d="M-440.518 465.432L-347.008 424.469C-332.457 418.094 -317.636 413.802 -303.422 411.846L-234.342 402.341C-227.602 401.413 -221.047 401.018 -214.765 401.16L-157.171 402.459C-147.622 402.674 -137.461 401.648 -127.001 399.413L-78.4233 389.03C-67.5488 386.705 -56.9986 385.689 -47.1263 386.015L8.18582 387.84L53.6531 386.765C71.1901 386.35 90.3284 381.951 109.198 373.997L120.216 369.353C140.261 360.904 160.585 356.475 178.957 356.554L219.558 356.727C226.576 356.757 233.91 356.129 241.441 354.854L311.947 342.918L413.438 303.474C423.012 299.753 432.639 296.944 442.075 295.117L514.012 281.189C523.467 279.359 532.648 278.531 541.319 278.726L595.295 279.944C604.843 280.159 615.005 279.133 625.464 276.898L674.042 266.515C684.917 264.191 695.467 263.174 705.339 263.5L746.384 264.854C755.846 265.166 765.933 264.246 776.335 262.121L820.239 253.151C829.565 251.245 839.061 248.389 848.491 244.651L887.217 229.303C902.501 223.246 917.893 219.527 932.402 218.387L959.141 216.285C987.117 214.085 1017.79 202.361 1044.21 183.762L1087.02 153.639" stroke="#ECECEC" stroke-width="3"/>
    <path class="line 2" d="M-536 415.508L-443.637 378.722C-430.256 373.392 -416.769 369.848 -403.846 368.264L-332.418 359.508C-326.463 358.778 -320.661 358.469 -315.075 358.583L-254.767 359.818C-246.253 359.992 -237.251 359.181 -227.983 357.406L-162.205 344.809L-102.256 330.739C-88.258 327.454 -74.7478 326.311 -62.4644 327.372L-26.7339 330.459C-20.8707 330.966 -14.7142 330.971 -8.34222 330.476L25.2704 327.861C38.4791 326.833 52.4346 323.666 66.3892 318.529L127.17 296.155C137.758 292.258 148.364 289.487 158.659 287.931L209.793 280.199C219.321 278.759 229.12 276.278 238.927 272.823L324.235 242.773C333.001 239.685 341.764 237.374 350.337 235.889L424.085 223.113C432.454 221.664 440.583 221.011 448.308 221.169L505.384 222.338C513.897 222.512 522.899 221.702 532.167 219.927L583.429 210.109C593.063 208.264 602.408 207.462 611.214 207.723L655.561 209.04C663.998 209.291 672.931 208.565 682.141 206.88L728.24 198.446C736.729 196.893 745.391 194.537 754.046 191.426L794.34 176.945C808.232 171.953 822.095 168.92 835.192 168.009L866.759 165.813C892.893 163.994 921.576 153.774 947.054 137.204L988.102 110.506" stroke="black" stroke-width="2"/>
    <path class="line 3" d="M-383.584 305.422L-291.221 268.636C-277.84 263.306 -264.353 259.762 -251.43 258.178L-180.002 249.422C-174.047 248.692 -168.245 248.383 -162.659 248.497L-102.351 249.732C-93.8374 249.906 -84.8354 249.095 -75.5674 247.32L-9.78937 234.723L50.1596 220.654C64.1577 217.368 77.668 216.225 89.9513 217.286L125.682 220.373C131.545 220.88 137.702 220.885 144.074 220.39L177.686 217.775C190.895 216.747 204.85 213.58 218.805 208.443L279.586 186.069C290.174 182.172 300.78 179.402 311.075 177.845L362.208 170.113C371.737 168.673 381.536 166.192 391.343 162.737L476.651 132.687C485.417 129.599 494.18 127.288 502.753 125.803L576.501 113.028C584.87 111.578 592.999 110.925 600.724 111.083L657.799 112.252C666.313 112.426 675.315 111.616 684.583 109.841L735.845 100.023C745.479 98.1781 754.824 97.3756 763.63 97.6372L807.976 98.9542C816.414 99.2048 825.346 98.4788 834.556 96.7939L880.656 88.3602C889.145 86.8072 897.807 84.4509 906.462 81.3404L946.755 66.8595C960.648 61.8668 974.51 58.8344 987.608 57.923L1019.17 55.7267C1045.31 53.9083 1073.99 43.6885 1099.47 27.1179L1140.52 0.419922" stroke="black"/>
</svg>