<svg width="375" height="470" viewBox="0 0 375 470" fill="none" xmlns="http://www.w3.org/2000/svg">
<g opacity="0.5">
<line x1="-162.674" y1="33.5156" x2="537.326" y2="33.5156" stroke="#07855B" stroke-dasharray="2 2"/>
<line x1="-162.674" y1="83.5156" x2="537.326" y2="83.5156" stroke="#07855B" stroke-dasharray="2 2"/>
<line x1="-162.674" y1="133.516" x2="537.326" y2="133.516" stroke="#07855B" stroke-dasharray="2 2"/>
<line x1="-162.674" y1="183.516" x2="537.326" y2="183.516" stroke="#07855B" stroke-dasharray="2 2"/>
<line x1="-162.674" y1="233.516" x2="537.326" y2="233.516" stroke="#07855B" stroke-dasharray="2 2"/>
<line x1="-162.674" y1="283.516" x2="537.326" y2="283.516" stroke="#07855B" stroke-dasharray="2 2"/>
<line x1="-162.674" y1="333.516" x2="537.326" y2="333.516" stroke="#07855B" stroke-dasharray="2 2"/>
<line x1="-162.674" y1="383.516" x2="537.326" y2="383.516" stroke="#07855B" stroke-dasharray="2 2"/>
<line x1="-162.674" y1="433.516" x2="537.326" y2="433.516" stroke="#07855B" stroke-dasharray="2 2"/>
<line x1="8.67383" y1="585.984" x2="8.67383" y2="-114.016" stroke="#07855B" stroke-dasharray="2 2"/>
<line x1="59.6738" y1="585.984" x2="59.6738" y2="-114.016" stroke="#07855B" stroke-dasharray="2 2"/>
<line x1="110.674" y1="585.984" x2="110.674" y2="-114.016" stroke="#07855B" stroke-dasharray="2 2"/>
<line x1="161.674" y1="585.984" x2="161.674" y2="-114.016" stroke="#07855B" stroke-dasharray="2 2"/>
<line x1="212.674" y1="585.984" x2="212.674" y2="-114.016" stroke="#07855B" stroke-dasharray="2 2"/>
<line x1="263.674" y1="585.984" x2="263.674" y2="-114.016" stroke="#07855B" stroke-dasharray="2 2"/>
<line x1="314.674" y1="585.984" x2="314.674" y2="-114.016" stroke="#07855B" stroke-dasharray="2 2"/>
<line x1="365.674" y1="585.984" x2="365.674" y2="-114.016" stroke="#07855B" stroke-dasharray="2 2"/>
</g>
</svg>
