<svg width="31" height="31" viewBox="0 0 31 31" fill="none" xmlns="http://www.w3.org/2000/svg">
<path d="M15.3201 9.92928C12.3286 9.92928 9.90346 12.3544 9.90346 15.3459C9.90346 18.3375 12.3286 20.7626 15.3201 20.7626C18.3117 20.7626 20.7368 18.3375 20.7368 15.3459C20.7368 12.3544 18.3117 9.92928 15.3201 9.92928Z" fill="black"/>
<path fill-rule="evenodd" clip-rule="evenodd" d="M6.60269 0.481723C12.3496 -0.160574 18.2907 -0.160574 24.0376 0.481723C27.2016 0.835346 29.7536 3.32831 30.1249 6.5034C30.8121 12.3784 30.8121 18.3135 30.1249 24.1885C29.7536 27.3636 27.2016 29.8565 24.0376 30.2102C18.2907 30.8525 12.3496 30.8525 6.60269 30.2102C3.4387 29.8565 0.886707 27.3636 0.515351 24.1885C-0.171784 18.3135 -0.171784 12.3784 0.515351 6.5034C0.886707 3.32831 3.4387 0.835346 6.60269 0.481723ZM23.6535 5.34594C22.733 5.34594 21.9868 6.09213 21.9868 7.01261C21.9868 7.93308 22.733 8.67928 23.6535 8.67928C24.5739 8.67928 25.3201 7.93308 25.3201 7.01261C25.3201 6.09213 24.5739 5.34594 23.6535 5.34594ZM7.40346 15.3459C7.40346 10.9737 10.9479 7.42928 15.3201 7.42928C19.6924 7.42928 23.2368 10.9737 23.2368 15.3459C23.2368 19.7182 19.6924 23.2626 15.3201 23.2626C10.9479 23.2626 7.40346 19.7182 7.40346 15.3459Z" fill="black"/>
</svg>
