<svg width="58" height="44" viewBox="0 0 58 44" fill="none" xmlns="http://www.w3.org/2000/svg">
<path d="M58 8.33984V36.1953L50.1953 44H7.87598L0 36.123V8.41113L8.41211 0H49.6602L58 8.33984Z" fill="black"/>
<path d="M29.0002 17.4812C26.5007 17.4812 24.4746 19.504 24.4746 21.9992C24.4746 24.4945 26.5007 26.5172 29.0002 26.5172C31.4996 26.5172 33.5258 24.4945 33.5258 21.9992C33.5258 19.504 31.4996 17.4812 29.0002 17.4812Z" fill="#4EC86C"/>
<path fill-rule="evenodd" clip-rule="evenodd" d="M21.7168 9.60102C26.5183 9.06528 31.4821 9.06528 36.2836 9.60102C38.9272 9.89598 41.0594 11.9754 41.3696 14.6237C41.9437 19.524 41.9437 24.4744 41.3696 29.3748C41.0594 32.0231 38.9272 34.1025 36.2836 34.3974C31.4821 34.9332 26.5183 34.9332 21.7168 34.3974C19.0732 34.1025 16.941 32.0231 16.6308 29.3748C16.0567 24.4744 16.0567 19.524 16.6308 14.6237C16.941 11.9754 19.0732 9.89598 21.7168 9.60102ZM35.9627 13.6583C35.1936 13.6583 34.5702 14.2806 34.5702 15.0484C34.5702 15.8162 35.1936 16.4386 35.9627 16.4386C36.7318 16.4386 37.3552 15.8162 37.3552 15.0484C37.3552 14.2806 36.7318 13.6583 35.9627 13.6583ZM22.3858 21.9992C22.3858 18.3523 25.3472 15.396 29.0002 15.396C32.6532 15.396 35.6146 18.3523 35.6146 21.9992C35.6146 25.6461 32.6532 28.6025 29.0002 28.6025C25.3472 28.6025 22.3858 25.6461 22.3858 21.9992Z" fill="#4EC86C"/>
</svg>
