<svg width="58" height="44" viewBox="0 0 58 44" fill="none" xmlns="http://www.w3.org/2000/svg">
<path d="M58 8.33984V36.1953L50.1953 44H7.87598L0 36.123V8.41113L8.41211 0H49.6602L58 8.33984Z" fill="black"/>
<path d="M21.7166 9.60352C26.5181 9.06778 31.4824 9.06778 36.2839 9.60352C38.9273 9.8986 41.0596 11.9777 41.3699 14.626C41.9439 19.5262 41.944 24.4767 41.3699 29.377C41.0596 32.0252 38.9273 34.1044 36.2839 34.3994C34.3444 34.6158 32.3781 34.7426 30.407 34.7842V27.4219H33.0779C33.1882 27.4219 33.2844 27.3472 33.3113 27.2402L34.2214 23.6025C34.2592 23.4507 34.1436 23.3037 33.9871 23.3037H30.407V20.5488C30.407 20.329 30.4947 20.1183 30.6501 19.9629C30.8056 19.8075 31.0162 19.7197 31.2361 19.7197H34.0173C34.1502 19.7197 34.2584 19.6123 34.2585 19.4795V15.8418C34.2585 15.7089 34.1502 15.6016 34.0173 15.6016H31.2361C29.9239 15.6016 28.6649 16.1229 27.7371 17.0508C26.8095 17.9786 26.2889 19.2369 26.2888 20.5488V23.3037H23.6404C23.5077 23.3039 23.4004 23.4113 23.4001 23.5439V27.1816C23.4002 27.3145 23.5076 27.4217 23.6404 27.4219H26.2888V34.7461C24.7555 34.6836 23.2279 34.568 21.7166 34.3994C19.0732 34.1044 16.9409 32.0252 16.6306 29.377C16.0565 24.4767 16.0565 19.5262 16.6306 14.626C16.9409 11.9777 19.0732 9.89858 21.7166 9.60352Z" fill="#4EC86C"/>
</svg>
