<svg width="31" height="31" viewBox="0 0 31 31" fill="none" xmlns="http://www.w3.org/2000/svg">
<path d="M6.60205 0.482422C12.3489 -0.159875 18.2907 -0.159875 24.0376 0.482422C27.2014 0.836213 29.7532 3.32895 30.1245 6.50391C30.8116 12.3787 30.8116 18.3136 30.1245 24.1885C29.7532 27.3635 27.2014 29.8572 24.0376 30.2109C18.2907 30.8532 12.3489 30.8532 6.60205 30.2109C3.43815 29.8572 0.886484 27.3635 0.515137 24.1885C-0.171954 18.3136 -0.17197 12.3788 0.515137 6.50391C0.886481 3.32892 3.43819 0.836166 6.60205 0.482422ZM7.19287 23.7588H10.3901V11.1006H7.19287V23.7588ZM19.9956 10.8125C17.8903 10.8126 16.5122 12.0083 15.9663 12.9961H15.8882L15.7329 11.0986H12.9253C13.0033 12.1904 13.0288 13.4124 13.0288 14.8682V23.7588H16.2524V16.3242C16.2524 15.9604 16.2784 15.5701 16.3823 15.2842C16.7203 14.3224 17.6047 13.4121 18.8784 13.4121C20.6197 13.4123 21.2953 14.79 21.2954 16.6094V23.7588H24.4927V16.2461C24.4927 12.2428 22.2052 10.8125 19.9956 10.8125ZM8.80127 6.23633C7.69486 6.23647 6.79836 7.13379 6.79834 8.24023C6.79834 9.34669 7.69485 10.244 8.80127 10.2441C9.90782 10.2441 10.8052 9.34678 10.8052 8.24023C10.8052 7.1337 9.90781 6.23633 8.80127 6.23633Z" fill="black"/>
</svg>
