<svg width="58" height="44" viewBox="0 0 58 44" fill="none" xmlns="http://www.w3.org/2000/svg">
<path d="M58 8.33984V36.1953L50.1953 44H7.87598L0 36.124V8.41113L8.41211 0H49.6602L58 8.33984Z" fill="black"/>
<path d="M23.4282 10.7631H19.1504C18.4782 10.7631 17.9282 11.3131 17.9282 11.9853C17.9282 23.462 27.2293 32.7631 38.706 32.7631C39.3782 32.7631 39.9282 32.2131 39.9282 31.5408V27.2753C39.9282 26.6031 39.3782 26.0531 38.706 26.0531C37.1904 26.0531 35.7116 25.8086 34.3427 25.3564C34.2204 25.3075 34.086 25.2953 33.9638 25.2953C33.646 25.2953 33.3404 25.4175 33.096 25.6497L30.4071 28.3386C26.9482 26.5664 24.1127 23.7431 22.3527 20.2842L25.0416 17.5953C25.3838 17.2531 25.4816 16.7764 25.3471 16.3486C24.8949 14.9797 24.6504 13.5131 24.6504 11.9853C24.6504 11.3131 24.1004 10.7631 23.4282 10.7631Z" fill="#4EC86C"/>
</svg>
