<svg width="31" height="31" viewBox="0 0 31 31" fill="none" xmlns="http://www.w3.org/2000/svg">
<path d="M6.60303 0.482422C12.3498 -0.159851 18.2908 -0.159861 24.0376 0.482422C27.2016 0.836045 29.7541 3.32882 30.1255 6.50391C30.8126 12.3787 30.8126 18.3137 30.1255 24.1885C29.7541 27.3636 27.2016 29.8573 24.0376 30.2109C21.7468 30.467 19.4251 30.618 17.0972 30.6699V21.5186H20.436C20.5741 21.5186 20.6945 21.4249 20.728 21.291L21.8647 16.7441C21.9121 16.5543 21.7684 16.3701 21.5728 16.3701H17.0972V12.9268C17.0973 12.6521 17.2066 12.3886 17.4009 12.1943C17.5951 12.0001 17.8586 11.8907 18.1333 11.8906H21.6108C21.7768 11.8904 21.9116 11.7559 21.9116 11.5898V7.04297C21.9114 6.87714 21.7767 6.74242 21.6108 6.74219H18.1333C16.4932 6.74227 14.92 7.39397 13.7603 8.55371C12.6005 9.71346 11.9488 11.2866 11.9487 12.9268V16.3701H8.63916C8.47308 16.3702 8.33838 16.5058 8.33838 16.6719V21.2178C8.33838 21.3839 8.47308 21.5185 8.63916 21.5186H11.9487V30.6191C10.156 30.5431 8.37028 30.4084 6.60303 30.2109C3.43903 29.8573 0.886492 27.3636 0.515137 24.1885C-0.171947 18.3137 -0.17196 12.3787 0.515137 6.50391C0.886492 3.32882 3.43903 0.836045 6.60303 0.482422Z" fill="black"/>
</svg>
