<svg width="58" height="44" viewBox="0 0 58 44" fill="none" xmlns="http://www.w3.org/2000/svg">
<path d="M58 8.33984V36.1953L50.1953 44H7.87598L0 36.123V8.41113L8.41211 0H49.6602L58 8.33984Z" fill="black"/>
<path d="M21.7173 9.60352C26.5187 9.06781 31.4823 9.0678 36.2837 9.60352C38.9272 9.89847 41.0594 11.9776 41.3696 14.626C41.9437 19.5262 41.9437 24.4767 41.3696 29.377C41.0593 32.0252 38.9272 34.1045 36.2837 34.3994C31.4823 34.9351 26.5187 34.9351 21.7173 34.3994C19.0738 34.1045 16.9417 32.0252 16.6313 29.377C16.0573 24.4767 16.0573 19.5262 16.6313 14.626C16.9416 11.9776 19.0738 9.89847 21.7173 9.60352ZM22.4985 28.7314H25.0562L25.0571 18.6055H22.4985V28.7314ZM32.7417 18.375C31.0573 18.375 29.9548 19.3318 29.5181 20.1221H29.4556L29.3306 18.6045H27.0845C27.1468 19.4777 27.1675 20.4549 27.1675 21.6191V28.7314H29.7466V22.7842C29.7466 22.4931 29.767 22.1809 29.8501 21.9521C30.1204 21.1827 30.8282 20.4551 31.8472 20.4551C33.2403 20.4552 33.7807 21.5571 33.7808 23.0127V28.7314H36.3394V22.7217C36.3394 19.5194 34.5092 18.3752 32.7417 18.375ZM23.7856 14.7139C22.9005 14.7139 22.1831 15.4322 22.1831 16.3174C22.1832 17.2025 22.9005 17.9199 23.7856 17.9199C24.6708 17.9199 25.3881 17.2025 25.3882 16.3174C25.3882 15.4321 24.6709 14.7139 23.7856 14.7139Z" fill="#4EC86C"/>
</svg>
