<svg width="34" height="25" viewBox="0 0 34 25" fill="none" xmlns="http://www.w3.org/2000/svg">
<path fill-rule="evenodd" clip-rule="evenodd" d="M8.50544 0.326209C14.0649 -0.108736 19.6498 -0.108736 25.2093 0.326209L28.9438 0.618379C31.0239 0.781118 32.7256 2.34011 33.0694 4.39806C33.9298 9.54722 33.9298 14.8035 33.0694 19.9526C32.7256 22.0106 31.0239 23.5696 28.9438 23.7323L25.2093 24.0245C19.6498 24.4594 14.0649 24.4594 8.50544 24.0245L4.77094 23.7323C2.69081 23.5696 0.98911 22.0106 0.645258 19.9526C-0.215086 14.8035 -0.215086 9.54722 0.645258 4.39806C0.98911 2.34011 2.69081 0.781118 4.77094 0.618379L8.50544 0.326209ZM13.524 16.2922V8.05844C13.524 7.66979 13.948 7.42973 14.2812 7.62969L21.1427 11.7466C21.4664 11.9408 21.4664 12.4099 21.1427 12.6041L14.2812 16.721C13.948 16.9209 13.524 16.6809 13.524 16.2922Z" fill="black"/>
</svg>
