<svg width="58" height="44" viewBox="0 0 58 44" fill="none" xmlns="http://www.w3.org/2000/svg">
<path d="M58 8.33984V36.1953L50.1953 44H7.87598L0 36.123V8.41113L8.41211 0H49.6602L58 8.33984Z" fill="black"/>
<path fill-rule="evenodd" clip-rule="evenodd" d="M22.3185 12.5227C26.7661 12.1747 31.234 12.1747 35.6816 12.5227L38.6692 12.7564C40.3333 12.8866 41.6946 14.1338 41.9697 15.7802C42.658 19.8995 42.658 24.1045 41.9697 28.2238C41.6946 29.8702 40.3333 31.1174 38.6692 31.2476L35.6816 31.4813C31.234 31.8293 26.7661 31.8293 22.3185 31.4813L19.3309 31.2476C17.6668 31.1174 16.3054 29.8702 16.0304 28.2238C15.3421 24.1045 15.3421 19.8995 16.0304 15.7802C16.3054 14.1338 17.6668 12.8866 19.3309 12.7564L22.3185 12.5227ZM26.3333 25.2955V18.7085C26.3333 18.3976 26.6725 18.2055 26.9391 18.3655L32.4283 21.659C32.6873 21.8144 32.6873 22.1896 32.4283 22.345L26.9391 25.6385C26.6725 25.7985 26.3333 25.6064 26.3333 25.2955Z" fill="#4EC86C"/>
</svg>
