<svg width="154" height="98" viewBox="0 0 154 98" fill="none" xmlns="http://www.w3.org/2000/svg">
    <path
        d="M153.255 13.125V29.75H29.6905V68.25H123.565V64.3125H76.4093V33.6875H153.255V84.875L140.157 98H13.0987L0 84.875V13.125L13.0987 0H140.157L153.255 13.125Z"
        fill="black" />
    <g clip-path="url(#clip0_48_292)">
        <path
            d="M112.415 77.6387C113.446 77.6387 114.478 77.6387 115.541 77.6387C115.541 79.8586 115.541 82.0785 115.541 84.3657C117.933 84.3657 120.325 84.3657 122.79 84.3657C122.79 85.3896 122.79 86.4136 122.79 87.4687C119.366 87.4687 115.942 87.4687 112.415 87.4687C112.415 84.2248 112.415 80.9809 112.415 77.6387Z"
            fill="#4EC86C" />
        <path
            d="M102.335 77.6328C102.354 77.6329 102.374 77.6331 102.394 77.6332C102.415 77.6332 102.435 77.6331 102.456 77.6331C102.526 77.633 102.595 77.6333 102.664 77.6335C102.714 77.6335 102.763 77.6335 102.813 77.6335C102.948 77.6335 103.083 77.6338 103.218 77.6341C103.359 77.6343 103.499 77.6344 103.64 77.6344C103.877 77.6346 104.113 77.6348 104.35 77.6352C104.593 77.6357 104.837 77.636 105.081 77.6362C105.103 77.6362 105.103 77.6362 105.126 77.6362C105.201 77.6363 105.277 77.6363 105.352 77.6364C105.977 77.6369 106.602 77.6377 107.227 77.6387C107.256 77.696 107.284 77.7534 107.313 77.8108C107.325 77.8348 107.325 77.8348 107.338 77.8594C107.407 77.9985 107.471 78.1398 107.533 78.2828C107.612 78.4661 107.693 78.6484 107.781 78.8283C107.814 78.8976 107.844 78.9667 107.87 79.039C107.912 79.1515 107.964 79.258 108.017 79.3657C108.088 79.5139 108.157 79.662 108.219 79.8145C108.307 80.0298 108.403 80.2415 108.502 80.4519C108.607 80.676 108.709 80.902 108.803 81.131C108.849 81.2446 108.901 81.3558 108.953 81.4669C109.029 81.6291 109.102 81.793 109.174 81.9569C109.198 82.0117 109.223 82.0663 109.247 82.121C109.255 82.1392 109.263 82.1573 109.271 82.1761C109.287 82.2106 109.302 82.2451 109.318 82.2796C109.35 82.3524 109.382 82.4253 109.413 82.4986C109.448 82.5796 109.485 82.6594 109.523 82.7391C109.583 82.8671 109.64 82.9961 109.694 83.127C109.753 83.2708 109.818 83.4102 109.889 83.5488C109.942 83.6546 109.99 83.7606 110.032 83.8713C110.068 83.9584 110.109 84.0429 110.149 84.1278C110.197 84.2288 110.245 84.3291 110.285 84.4336C110.324 84.5358 110.371 84.6336 110.418 84.7323C110.477 84.8553 110.532 84.9787 110.581 85.106C110.625 85.2198 110.674 85.3287 110.73 85.4373C110.773 85.5222 110.815 85.6057 110.848 85.6949C110.891 85.8074 110.944 85.9149 110.996 86.0233C111.06 86.1576 111.121 86.2921 111.176 86.431C111.214 86.5288 111.253 86.6234 111.301 86.7164C111.426 86.9599 111.535 87.2093 111.622 87.4687C110.425 87.4687 109.229 87.4687 107.997 87.4687C107.846 87.1918 107.846 87.1918 107.794 87.0426C107.741 86.8937 107.677 86.7563 107.605 86.6158C107.453 86.3146 107.453 86.3146 107.453 86.2229C105.644 86.2229 103.835 86.2229 101.971 86.2229C101.949 86.2977 101.926 86.3724 101.903 86.4494C101.881 86.4793 101.858 86.5092 101.835 86.54C101.816 86.5843 101.799 86.6292 101.783 86.6745C101.734 86.8064 101.678 86.9334 101.618 87.0607C101.583 87.135 101.55 87.21 101.517 87.2853C101.489 87.3472 101.458 87.4078 101.427 87.4687C100.231 87.4687 99.0351 87.4687 97.8027 87.4687C97.928 87.1681 97.928 87.1681 97.984 87.0624C98.0449 86.9433 98.0924 86.8218 98.139 86.6964C98.1606 86.6421 98.1834 86.5942 98.2133 86.5443C98.2522 86.4782 98.2792 86.4139 98.3051 86.342C98.3796 86.138 98.4725 85.9427 98.5662 85.7471C98.6224 85.6293 98.6742 85.5107 98.723 85.3897C98.7645 85.2928 98.8104 85.1982 98.8561 85.1032C98.9145 84.9819 98.9697 84.8616 99.0161 84.7351C99.0625 84.6088 99.1208 84.4921 99.1825 84.3729C99.2512 84.2378 99.3062 84.0989 99.358 83.9566C99.39 83.8699 99.4229 83.8052 99.4791 83.7314C99.4993 83.6805 99.518 83.629 99.5358 83.5771C99.6026 83.3899 99.6875 83.2129 99.7744 83.0343C99.8367 82.9063 99.8951 82.7781 99.9479 82.6459C99.9887 82.55 100.034 82.4565 100.079 82.3626C100.148 82.2201 100.209 82.0777 100.264 81.9292C100.311 81.8112 100.367 81.6977 100.422 81.5833C100.476 81.4717 100.525 81.3597 100.569 81.2442C100.623 81.105 100.688 80.9739 100.756 80.8411C100.791 80.7683 100.82 80.6959 100.848 80.6199C100.89 80.506 100.94 80.3993 100.996 80.2915C101.056 80.1746 101.11 80.0576 101.157 79.9348C101.211 79.794 101.276 79.6616 101.345 79.5274C101.38 79.4547 101.409 79.3822 101.437 79.3062C101.486 79.1734 101.547 79.0497 101.611 78.9239C101.671 78.8074 101.721 78.6897 101.767 78.5673C101.824 78.4196 101.887 78.2761 101.955 78.1333C102.015 78.0057 102.07 77.8762 102.124 77.7458C102.175 77.6341 102.217 77.6334 102.335 77.6328ZM104.667 80.1075C104.662 80.1212 104.656 80.1349 104.651 80.1491C104.611 80.2509 104.569 80.3499 104.52 80.4472C104.482 80.5207 104.449 80.5939 104.419 80.6709C104.386 80.7551 104.349 80.8343 104.307 80.9144C104.253 81.0199 104.21 81.1258 104.17 81.2371C104.116 81.3856 104.052 81.5223 103.979 81.6625C103.944 81.7336 103.915 81.8041 103.888 81.8784C103.834 82.0263 103.766 82.1668 103.698 82.3087C103.646 82.4174 103.597 82.5263 103.554 82.639C103.503 82.7697 103.443 82.8969 103.378 83.0218C103.368 83.043 103.368 83.043 103.356 83.0647C103.335 83.1054 103.314 83.1459 103.293 83.1864C103.256 83.257 103.256 83.257 103.262 83.3464C104.204 83.3464 105.146 83.3464 106.117 83.3464C106.053 83.0908 105.939 82.8467 105.819 82.6132C105.763 82.5041 105.714 82.3935 105.668 82.2797C105.639 82.2101 105.608 82.142 105.576 82.0738C105.523 81.9609 105.475 81.8468 105.429 81.7312C105.377 81.603 105.32 81.479 105.257 81.3561C105.181 81.2071 105.114 81.0553 105.051 80.9005C104.992 80.7583 104.928 80.6193 104.862 80.4804C104.816 80.3816 104.775 80.2812 104.736 80.1799C104.717 80.1266 104.717 80.1266 104.667 80.1075Z"
            fill="#4EC86C" />
        <path
            d="M90.2446 77.6262C90.3852 77.6265 90.5258 77.6264 90.6664 77.626C91.4617 77.6239 92.2555 77.6263 93.0494 77.6782C93.0771 77.6799 93.1048 77.6817 93.1333 77.6835C93.4689 77.7055 93.7962 77.7461 94.1265 77.8094C94.1964 77.8224 94.2665 77.8329 94.3369 77.8431C94.4967 77.8672 94.6547 77.8981 94.8126 77.9323C94.831 77.9362 94.8494 77.9401 94.8683 77.9442C95.1388 78.0031 95.3952 78.0754 95.6508 78.1814C95.6665 78.1877 95.6821 78.1939 95.6982 78.2003C95.8919 78.2779 96.058 78.3613 96.2172 78.4985C96.2459 78.5184 96.2747 78.5383 96.3035 78.558C96.5869 78.7718 96.808 79.0754 96.9274 79.4089C96.9449 79.4574 96.9654 79.5044 96.986 79.5517C97.1808 80.0397 97.1686 80.5336 97.1686 81.0579C96.0772 81.0579 94.9857 81.0579 93.8612 81.0579C93.8612 80.8711 93.8612 80.6842 93.8612 80.4917C91.9399 80.4917 90.0186 80.4917 88.0391 80.4917C88.0391 80.6412 88.0391 80.7907 88.0391 80.9447C88.0616 80.9521 88.084 80.9596 88.1071 80.9673C88.1239 80.9851 88.1408 81.0028 88.1581 81.0211C88.4069 81.2586 88.8773 81.2434 89.1982 81.2774C89.2496 81.283 89.3009 81.2896 89.3521 81.2965C89.483 81.3132 89.615 81.3187 89.7467 81.3269C89.968 81.3412 90.1878 81.3606 90.4079 81.3878C90.5714 81.4079 90.7331 81.4246 90.8978 81.4302C91.1159 81.4382 91.3322 81.461 91.5491 81.484C91.8853 81.5196 92.2217 81.5521 92.5586 81.5817C92.5804 81.5836 92.6022 81.5855 92.6246 81.5875C92.8213 81.6048 93.018 81.622 93.2147 81.6383C93.412 81.6548 93.6073 81.6731 93.803 81.7035C93.9038 81.7175 94.0048 81.7267 94.1061 81.736C94.2671 81.7511 94.425 81.7731 94.5839 81.8029C94.7175 81.8279 94.8512 81.8456 94.986 81.8628C95.0498 81.8717 95.1121 81.8826 95.1751 81.896C95.2713 81.9162 95.368 81.9317 95.4654 81.9455C95.4935 81.9496 95.5217 81.9536 95.5507 81.9578C95.6249 81.9679 95.6249 81.9679 95.6822 81.95C95.7767 81.936 95.8562 81.9706 95.9453 82.0007C95.9644 82.007 95.9836 82.0133 96.0032 82.0197C96.2922 82.1157 96.5781 82.2176 96.8288 82.3943C96.8527 82.4097 96.8765 82.4251 96.901 82.441C96.9527 82.4766 96.9908 82.5073 97.0327 82.5528C97.0491 82.5682 97.0654 82.5836 97.0823 82.5995C97.3554 82.8743 97.4637 83.1596 97.5339 83.5338C97.5378 83.553 97.5416 83.5722 97.5455 83.592C97.5993 83.8749 97.6037 84.1599 97.6033 84.4469C97.6033 84.4723 97.6033 84.4723 97.6033 84.4983C97.6027 84.7582 97.5951 85.0138 97.5537 85.2708C97.5507 85.2903 97.5477 85.3099 97.5445 85.3301C97.4903 85.67 97.4031 85.954 97.2139 86.2447C97.2021 86.2639 97.1902 86.283 97.178 86.3028C97.0821 86.4504 96.9703 86.5493 96.8288 86.6524C96.8158 86.6628 96.8028 86.6732 96.7894 86.684C96.6727 86.776 96.5522 86.841 96.4168 86.9016C96.3952 86.9113 96.3735 86.921 96.3512 86.931C96.0241 87.0737 95.6856 87.1567 95.3339 87.211C95.2856 87.2191 95.2381 87.2293 95.1903 87.2395C95.0089 87.2763 94.8249 87.2976 94.6413 87.3206C94.6214 87.3231 94.6014 87.3256 94.5808 87.3282C94.255 87.3687 93.9306 87.397 93.6026 87.4125C93.4814 87.4184 93.3604 87.4255 93.2393 87.434C92.6495 87.474 92.0602 87.4748 91.4693 87.4737C91.3267 87.4735 91.184 87.4736 91.0414 87.4739C90.3312 87.475 89.6233 87.4602 88.9139 87.4254C88.7965 87.4197 88.6791 87.4146 88.5617 87.4095C88.2129 87.3941 87.8729 87.3596 87.5291 87.2964C87.4529 87.2831 87.3768 87.2742 87.3001 87.2654C86.9739 87.2231 86.6357 87.1633 86.3401 87.0148C86.3208 87.0055 86.3015 86.9961 86.2816 86.9865C86.2438 86.9679 86.2061 86.9489 86.1686 86.9296C86.1318 86.9109 86.0946 86.8929 86.0571 86.8756C85.7767 86.7451 85.5701 86.5363 85.3887 86.29C85.3783 86.2763 85.368 86.2626 85.3573 86.2485C85.2657 86.1163 85.2212 85.9655 85.1753 85.8128C85.1633 85.773 85.1507 85.7334 85.138 85.6939C85.0828 85.5079 85.0502 85.3193 85.0205 85.1278C85.0166 85.1038 85.0126 85.0799 85.0085 85.0551C84.9669 84.7678 84.9809 84.5053 84.9809 84.2062C86.0125 84.2062 87.0442 84.2062 88.1071 84.2062C88.1071 84.3333 88.1071 84.4604 88.1071 84.5913C90.0284 84.5913 91.9496 84.5913 93.9291 84.5913C93.9291 84.4866 93.9291 84.382 93.9291 84.2742C93.9067 84.2667 93.8843 84.2592 93.8612 84.2515C93.8551 84.2375 93.849 84.2235 93.8428 84.2091C93.8025 84.137 93.756 84.1248 93.6799 84.093C93.6038 84.0731 93.527 84.0609 93.4492 84.0491C93.4245 84.0454 93.3999 84.0416 93.3745 84.0378C92.742 83.9489 92.0988 83.9183 91.4614 83.8852C91.2124 83.8723 90.9651 83.8503 90.7173 83.8236C90.5043 83.8011 90.2917 83.7874 90.078 83.7759C89.8268 83.7623 89.5796 83.7389 89.3308 83.7015C89.2177 83.6847 89.1045 83.6739 88.9906 83.6641C88.5506 83.6251 88.1103 83.5661 87.6767 83.4814C87.6598 83.4784 87.6429 83.4753 87.6256 83.4721C87.4756 83.4437 87.3304 83.4037 87.184 83.3611C86.9958 83.3071 86.8077 83.2592 86.6162 83.2181C86.3408 83.1579 86.0896 83.0685 85.8644 82.8926C85.8644 82.8776 85.8644 82.8627 85.8644 82.8473C85.8479 82.8452 85.8313 82.8431 85.8143 82.8409C85.7406 82.8219 85.7043 82.7942 85.6463 82.7453C85.6269 82.7291 85.6075 82.7129 85.5875 82.6961C85.5667 82.6787 85.546 82.6613 85.5246 82.6434C85.5017 82.6255 85.4788 82.6077 85.4553 82.5893C85.4328 82.5716 85.4104 82.554 85.3872 82.5358C85.3664 82.5196 85.3456 82.5034 85.3241 82.4866C85.2746 82.4388 85.2602 82.4162 85.2527 82.349C85.2378 82.349 85.2228 82.349 85.2074 82.349C84.9359 81.8198 84.8125 81.3134 84.8152 80.7168C84.8153 80.6983 84.8153 80.6799 84.8153 80.6609C84.8163 80.3727 84.8339 80.0954 84.8903 79.8122C84.8969 79.7748 84.9036 79.7374 84.9102 79.7C84.9973 79.2277 85.1728 78.8331 85.5472 78.5211C85.5655 78.5029 85.5837 78.4847 85.6024 78.4659C85.893 78.1754 86.2382 78.0249 86.6346 77.9323C86.6572 77.927 86.6798 77.9217 86.7031 77.9162C86.7807 77.8982 86.8584 77.8805 86.9362 77.8629C86.9606 77.8573 86.985 77.8518 87.0102 77.846C88.0762 77.6096 89.1591 77.6232 90.2446 77.6262Z"
            fill="#4EC86C" />
        <path
            d="M70.5503 77.6387C72.9423 77.6352 72.9423 77.6352 75.3826 77.6316C76.1364 77.6301 76.1364 77.6301 76.9054 77.6285C77.5216 77.628 77.5216 77.628 77.8106 77.6279C78.0113 77.6278 78.212 77.6274 78.4128 77.6268C78.6449 77.626 78.8771 77.6257 79.1093 77.6259C79.2278 77.6259 79.3462 77.6258 79.4647 77.6252C80.1156 77.622 80.7463 77.6531 81.3788 77.8199C81.4292 77.8311 81.4797 77.8421 81.5303 77.8525C82.6723 78.0954 82.6723 78.0954 83.0779 78.4768C83.0853 78.4992 83.0928 78.5216 83.1005 78.5447C83.1173 78.551 83.1341 78.5572 83.1514 78.5636C83.3084 78.63 83.4428 78.8412 83.5084 78.9955C83.5335 79.0484 83.5637 79.0956 83.5954 79.1448C83.6717 79.271 83.7184 79.3994 83.7617 79.5399C83.7695 79.5647 83.7772 79.5895 83.7852 79.6151C83.8506 79.8311 83.8899 80.0425 83.916 80.2661C83.9181 80.2828 83.9201 80.2995 83.9222 80.3167C83.97 80.7177 83.9681 81.1187 83.9674 81.5219C83.9673 81.6194 83.9674 81.7168 83.9675 81.8143C83.9676 81.9778 83.9675 82.1413 83.9673 82.3048C83.967 82.4925 83.9671 82.6802 83.9673 82.8679C83.9675 83.0305 83.9676 83.1932 83.9675 83.3558C83.9674 83.4523 83.9674 83.5488 83.9675 83.6452C83.9681 84.0386 83.966 84.4278 83.916 84.8187C83.9115 84.8568 83.9069 84.8949 83.9024 84.933C83.8549 85.3289 83.7329 85.7329 83.5083 86.0644C83.4952 86.0862 83.4822 86.1079 83.4687 86.1303C83.3916 86.2581 83.3106 86.3798 83.1911 86.4721C83.1762 86.4721 83.1612 86.4721 83.1458 86.4721C83.1383 86.4946 83.1309 86.517 83.1232 86.5401C83.0782 86.5797 83.0336 86.616 82.9858 86.6519C82.9724 86.6621 82.9591 86.6722 82.9453 86.6827C82.8273 86.7706 82.7097 86.8306 82.5742 86.8885C82.5168 86.913 82.4597 86.938 82.4027 86.9633C82.1925 87.0547 81.9875 87.1167 81.7636 87.1641C81.6959 87.1794 81.6296 87.199 81.5629 87.2182C81.1535 87.3266 80.7394 87.3866 80.3185 87.4263C80.2974 87.4283 80.2764 87.4303 80.2547 87.4323C79.8024 87.4741 79.3529 87.4813 78.899 87.4792C78.7847 87.4788 78.6703 87.479 78.556 87.479C78.3358 87.4791 78.1156 87.4787 77.8954 87.4781C77.6397 87.4774 77.3841 87.4774 77.1284 87.4773C76.4559 87.4768 75.7833 87.4756 75.1108 87.4744C73.6058 87.4725 72.1009 87.4706 70.5503 87.4687C70.5503 84.2248 70.5503 80.9809 70.5503 77.6387ZM73.5859 80.5152C73.5859 81.8756 73.5859 83.2359 73.5859 84.6375C75.9931 84.6375 78.4003 84.6375 80.8804 84.6375C80.8804 83.2772 80.8804 81.9168 80.8804 80.5152C78.4732 80.5152 76.066 80.5152 73.5859 80.5152Z"
            fill="#4EC86C" />
        <path
            d="M60.4013 77.6367C60.421 77.6368 60.4406 77.6369 60.4609 77.6369C60.492 77.6369 60.492 77.6369 60.5238 77.6369C60.5938 77.6368 60.6639 77.6369 60.7339 77.6371C60.7839 77.6371 60.8339 77.6371 60.8839 77.6371C61.0201 77.6371 61.1563 77.6372 61.2925 77.6373C61.4347 77.6375 61.5768 77.6375 61.719 77.6375C61.9578 77.6376 62.1965 77.6377 62.4353 77.6379C62.6813 77.6381 62.9272 77.6383 63.1732 77.6384C63.1959 77.6384 63.1959 77.6384 63.2191 77.6384C63.2951 77.6384 63.3711 77.6385 63.4471 77.6385C64.0781 77.6387 64.709 77.6391 65.34 77.6396C65.3462 77.6552 65.3523 77.6707 65.3587 77.6867C65.3668 77.7071 65.3749 77.7275 65.3833 77.7485C65.3913 77.7687 65.3994 77.7889 65.4077 77.8097C65.4334 77.873 65.4616 77.9345 65.4916 77.9958C65.5022 78.0178 65.5129 78.0398 65.5238 78.0624C65.5458 78.1073 65.5677 78.1522 65.5897 78.197C65.6417 78.3044 65.6905 78.4108 65.7308 78.5231C65.765 78.6142 65.8066 78.7021 65.8469 78.7905C65.8559 78.8105 65.865 78.8305 65.8743 78.8511C65.921 78.9542 65.9681 79.0571 66.0154 79.16C66.0485 79.2324 66.0788 79.3051 66.1074 79.3794C66.1501 79.4887 66.2026 79.5923 66.2559 79.6967C66.304 79.7916 66.3449 79.8875 66.3829 79.9868C66.4147 80.0651 66.4534 80.1396 66.4918 80.2149C66.5341 80.2991 66.5703 80.3854 66.6045 80.4731C66.665 80.6275 66.7328 80.7778 66.8026 80.9281C66.868 81.0695 66.9329 81.2108 66.9937 81.3542C67.0228 81.4199 67.0522 81.4854 67.0815 81.551C67.1335 81.6674 67.1847 81.784 67.233 81.902C67.3119 82.0938 67.3991 82.283 67.4949 82.4669C67.5321 82.5395 67.5601 82.614 67.5884 82.6905C67.6322 82.8071 67.683 82.9169 67.7399 83.0275C67.8001 83.1444 67.8541 83.2614 67.9013 83.3842C67.9457 83.4993 67.9949 83.6088 68.0514 83.7183C68.1019 83.8168 68.1428 83.9104 68.1746 84.0161C68.2335 84.1833 68.3179 84.3455 68.3997 84.5025C68.4486 84.5983 68.4856 84.6989 68.5246 84.799C68.5647 84.9002 68.6102 84.9961 68.6602 85.0928C68.7282 85.2247 68.7779 85.3545 68.8233 85.4956C68.8482 85.559 68.8775 85.6055 68.9162 85.6607C68.977 85.7605 69.0166 85.8726 69.0609 85.9804C69.0831 86.0336 69.1053 86.0868 69.1275 86.1399C69.1384 86.1659 69.1492 86.1919 69.1604 86.2186C69.2647 86.4668 69.3766 86.7116 69.4924 86.9545C69.5734 87.1246 69.6348 87.2873 69.6895 87.4696C68.4934 87.4696 67.2973 87.4696 66.0649 87.4696C66.0275 87.3799 65.9902 87.2903 65.9517 87.1978C65.9259 87.1456 65.8996 87.0936 65.8724 87.0421C65.8185 86.9367 65.7743 86.833 65.7364 86.7208C65.6887 86.5794 65.6257 86.4559 65.5519 86.3269C65.5212 86.2692 65.5212 86.2692 65.5212 86.2239C63.7196 86.2314 61.9179 86.2389 60.0617 86.2466C59.9975 86.3589 59.9489 86.4567 59.9073 86.5764C59.864 86.6967 59.8159 86.8107 59.7573 86.9246C59.6679 87.1018 59.5935 87.2862 59.518 87.4696C58.3293 87.4696 57.1407 87.4696 55.916 87.4696C55.9325 87.3706 55.9453 87.3077 55.9831 87.2196C55.9919 87.199 56.0007 87.1784 56.0098 87.1571C56.0237 87.1254 56.0237 87.1254 56.0378 87.0931C56.0468 87.0718 56.0559 87.0505 56.0652 87.0285C56.1068 86.9323 56.1476 86.8514 56.2105 86.7675C56.2328 86.7082 56.2533 86.6494 56.2728 86.5891C56.3253 86.4335 56.3885 86.2924 56.4646 86.1468C56.5101 86.0577 56.5472 85.9657 56.5843 85.8728C56.6328 85.7518 56.6847 85.635 56.7443 85.5189C56.8144 85.3823 56.8721 85.2436 56.9277 85.1008C56.9762 84.9774 57.0293 84.8576 57.0896 84.7395C57.149 84.6212 57.2005 84.4996 57.2526 84.3779C57.3108 84.2419 57.3697 84.1071 57.437 83.9753C57.4639 83.9214 57.4865 83.8662 57.5089 83.8103C57.5513 83.7069 57.5968 83.6054 57.6448 83.5045C57.7065 83.3743 57.7636 83.2426 57.8189 83.1096C57.8802 82.9622 57.9445 82.8169 58.013 82.6727C58.0526 82.5889 58.0897 82.5045 58.1248 82.4187C58.1723 82.3026 58.2246 82.189 58.2782 82.0755C58.3271 81.9718 58.3737 81.8672 58.4193 81.7619C58.4774 81.6276 58.5383 81.4948 58.6008 81.3625C58.641 81.2771 58.6783 81.1911 58.7138 81.1036C58.7539 81.005 58.7994 80.9109 58.8483 80.8163C58.9046 80.7069 58.9514 80.5967 58.9927 80.4808C59.0538 80.3095 59.1304 80.1475 59.2097 79.984C59.2694 79.861 59.3247 79.7374 59.3759 79.6105C59.4131 79.5223 59.4541 79.4361 59.4953 79.3497C59.5563 79.2216 59.6137 79.093 59.6672 78.9616C59.7342 78.802 59.807 78.6447 59.8785 78.4869C59.9104 78.4162 59.9419 78.3453 59.9734 78.2743C59.9938 78.2283 60.0143 78.1824 60.0348 78.1365C60.0651 78.0685 60.0949 78.0004 60.1245 77.9321C60.1316 77.9156 60.1388 77.8992 60.1461 77.8823C60.1605 77.8491 60.1748 77.816 60.1891 77.7828C60.2524 77.6371 60.2524 77.6371 60.4013 77.6367ZM62.7575 80.1311C62.696 80.2643 62.6363 80.3981 62.5791 80.5332C62.5308 80.6466 62.4802 80.7586 62.4276 80.8701C62.3692 80.9936 62.315 81.1182 62.2632 81.2446C62.2192 81.3503 62.1709 81.454 62.1232 81.5581C62.0734 81.6677 62.0258 81.7779 61.9802 81.8893C61.9372 81.9931 61.891 82.095 61.8428 82.1965C61.7768 82.3356 61.7176 82.4768 61.6601 82.6196C61.6212 82.7151 61.5789 82.8071 61.5313 82.8986C61.46 83.0429 61.4071 83.1958 61.3529 83.3474C62.2949 83.3474 63.2368 83.3474 64.2073 83.3474C64.1916 83.2132 64.1916 83.2132 64.146 83.1004C64.1344 83.0779 64.1344 83.0779 64.1227 83.0549C64.1146 83.0398 64.1066 83.0247 64.0983 83.0091C64.0826 82.9786 64.0668 82.9482 64.0511 82.9178C64.027 82.8717 64.003 82.8256 63.9789 82.7794C63.971 82.7641 63.9631 82.7487 63.955 82.7329C63.948 82.7193 63.941 82.7057 63.9337 82.6917C63.9128 82.6452 63.9128 82.6452 63.8916 82.581C63.8662 82.5053 63.8355 82.4343 63.8025 82.3616C63.7962 82.3477 63.7899 82.3337 63.7834 82.3194C63.7629 82.2741 63.7423 82.2289 63.7217 82.1838C63.7074 82.1523 63.6931 82.1209 63.6789 82.0894C63.6121 81.9421 63.5448 81.795 63.4772 81.648C63.466 81.6239 63.4549 81.5997 63.4434 81.5748C63.4229 81.5302 63.4023 81.4857 63.3816 81.4412C63.3369 81.3444 63.2941 81.2475 63.2551 81.1482C63.2122 81.0392 63.1628 80.9343 63.1114 80.829C63.0339 80.6683 62.9645 80.5067 62.9021 80.3395C62.8683 80.2613 62.8304 80.1997 62.7801 80.1311C62.7726 80.1311 62.7652 80.1311 62.7575 80.1311Z"
            fill="#4EC86C" />
        <path
            d="M44.7024 77.6387C45.734 77.6387 46.7657 77.6387 47.8286 77.6387C47.8286 79.8586 47.8286 82.0785 47.8286 84.3657C50.2283 84.3657 52.6281 84.3657 55.1005 84.3657C55.1005 85.3896 55.1005 86.4136 55.1005 87.4687C51.6691 87.4687 48.2377 87.4687 44.7024 87.4687C44.7024 84.2248 44.7024 80.9809 44.7024 77.6387Z"
            fill="#4EC86C" />
        <path
            d="M34.8661 77.6249C34.9808 77.625 35.0955 77.625 35.2102 77.6249C35.2349 77.6248 35.2349 77.6248 35.2602 77.6248C35.2938 77.6248 35.3274 77.6247 35.361 77.6247C35.6738 77.6243 35.9867 77.6245 36.2996 77.6249C36.5836 77.6252 36.8676 77.6249 37.1517 77.6242C37.4457 77.6236 37.7398 77.6233 38.0339 77.6235C38.0674 77.6236 38.1009 77.6236 38.1344 77.6236C38.1508 77.6236 38.1673 77.6236 38.1843 77.6236C38.2983 77.6237 38.4123 77.6235 38.5263 77.6231C39.44 77.6206 40.3008 77.6729 41.191 77.887C41.2263 77.8953 41.2263 77.8953 41.2623 77.9037C41.8893 78.0519 42.4475 78.2869 42.8674 78.793C42.8823 78.8098 42.8973 78.8266 42.9127 78.844C43.3934 79.5049 43.4111 80.2971 43.4111 81.0806C42.3944 81.0806 41.3777 81.0806 40.3301 81.0806C40.3301 80.8938 40.3301 80.7069 40.3301 80.5144C37.923 80.5144 35.5158 80.5144 33.0356 80.5144C33.0356 81.8598 33.0356 83.2052 33.0356 84.5914C35.4353 84.5914 37.8351 84.5914 40.3075 84.5914C40.3075 84.3447 40.3075 84.098 40.3075 83.8439C39.1039 83.8439 37.9003 83.8439 36.6602 83.8439C36.6602 83.1488 36.6602 82.4537 36.6602 81.7375C37.5141 81.737 38.3679 81.7366 39.2218 81.7363C39.3225 81.7363 39.4232 81.7363 39.5239 81.7362C39.5439 81.7362 39.564 81.7362 39.5846 81.7362C39.9097 81.7361 40.2347 81.7359 40.5598 81.7357C40.8931 81.7355 41.2263 81.7354 41.5596 81.7353C41.7654 81.7353 41.9713 81.7352 42.1771 81.735C42.318 81.7349 42.459 81.7349 42.5999 81.7349C42.6813 81.7349 42.7628 81.7349 42.8442 81.7348C42.9323 81.7347 43.0204 81.7347 43.1085 81.7348C43.1475 81.7347 43.1475 81.7347 43.1873 81.7346C43.2107 81.7346 43.2341 81.7346 43.2582 81.7347C43.2786 81.7347 43.299 81.7347 43.3199 81.7347C43.3658 81.7375 43.3658 81.7375 43.3884 81.7601C43.3908 81.7988 43.3916 81.8377 43.3917 81.8764C43.392 81.9143 43.392 81.9143 43.3922 81.9529C43.3923 81.9948 43.3923 81.9948 43.3924 82.0376C43.3926 82.0814 43.3926 82.0814 43.3929 82.1262C43.3933 82.2237 43.3936 82.3212 43.3938 82.4187C43.3939 82.4523 43.394 82.486 43.3941 82.5197C43.3945 82.6784 43.3948 82.837 43.395 82.9957C43.3952 83.1778 43.3958 83.3599 43.3968 83.5421C43.3975 83.6833 43.3978 83.8246 43.3979 83.9658C43.3979 84.0499 43.3981 84.134 43.3987 84.218C43.4023 84.7691 43.3526 85.2575 43.1392 85.7691C43.128 85.7964 43.1168 85.8237 43.1052 85.8519C43.0718 85.9264 43.0347 85.996 42.9934 86.0664C42.9803 86.0889 42.9673 86.1114 42.9538 86.1345C42.9136 86.1981 42.8702 86.255 42.8221 86.3127C42.8093 86.3284 42.7965 86.3441 42.7833 86.3602C42.7049 86.4528 42.631 86.5194 42.5276 86.5845C42.5112 86.6018 42.4949 86.6191 42.478 86.6369C42.3414 86.7674 42.1781 86.8587 42.0015 86.9237C41.9399 86.9464 41.8795 86.9716 41.8189 86.997C41.636 87.0728 41.4516 87.1271 41.259 87.1734C41.2275 87.1812 41.1961 87.1889 41.1647 87.1967C40.9772 87.2424 40.7892 87.2816 40.5992 87.3159C40.5368 87.3273 40.4749 87.3396 40.4128 87.3527C39.8038 87.4739 39.1949 87.4811 38.5764 87.4785C38.4543 87.4781 38.3321 87.4782 38.21 87.4782C38.005 87.4782 37.7999 87.4778 37.5949 87.4772C37.3605 87.4765 37.1262 87.4762 36.8919 87.4763C36.6387 87.4763 36.3855 87.476 36.1324 87.4756C36.0611 87.4755 35.9898 87.4754 35.9185 87.4754C35.3426 87.4751 34.7693 87.4621 34.1944 87.4281C34.0791 87.4212 33.9638 87.4154 33.8485 87.4096C33.1542 87.3705 32.4247 87.2408 31.767 87.0149C31.7456 87.0077 31.7243 87.0006 31.7022 86.9932C31.1369 86.7967 31.1369 86.7967 30.9288 86.6072C30.9288 86.5922 30.9288 86.5773 30.9288 86.5619C30.9125 86.5567 30.8961 86.5516 30.8793 86.5463C30.8031 86.5108 30.7577 86.4644 30.7023 86.4033C30.6871 86.3877 30.6718 86.372 30.6562 86.3559C30.3266 86.0077 30.136 85.5566 30.0453 85.0896C30.0415 85.0723 30.0378 85.0549 30.0339 85.0369C29.9908 84.8163 29.9931 84.5977 29.9931 84.3739C29.9929 84.3295 29.9927 84.2851 29.9925 84.2406C29.992 84.1206 29.9918 84.0005 29.9917 83.8805C29.9916 83.8052 29.9915 83.7299 29.9913 83.6546C29.9907 83.3911 29.9904 83.1275 29.9904 82.864C29.9903 82.6198 29.9896 82.3756 29.9887 82.1314C29.9879 81.9206 29.9875 81.7099 29.9875 81.4992C29.9875 81.3738 29.9873 81.2484 29.9866 81.123C29.9806 79.8784 29.9806 79.8784 30.2265 79.3593C30.2365 79.3376 30.2365 79.3376 30.2466 79.3155C30.3352 79.1238 30.4291 78.9547 30.5664 78.793C30.5919 78.7581 30.6173 78.7232 30.6428 78.6883C30.7247 78.5826 30.8214 78.5086 30.9288 78.4306C30.9461 78.416 30.9634 78.4014 30.9812 78.3863C31.0529 78.3318 31.1286 78.2917 31.2092 78.2522C31.225 78.2444 31.2409 78.2366 31.2572 78.2286C32.38 77.6835 33.6427 77.6233 34.8661 77.6249Z"
            fill="#4EC86C" />
        <mask id="mask0_48_292" style="mask-type:alpha" maskUnits="userSpaceOnUse" x="30" y="77" width="93" height="11">
            <g clip-path="url(#clip1_48_292)">
                <path
                    d="M112.415 77.6387C113.446 77.6387 114.478 77.6387 115.541 77.6387C115.541 79.8586 115.541 82.0785 115.541 84.3657C117.933 84.3657 120.325 84.3657 122.79 84.3657C122.79 85.3896 122.79 86.4136 122.79 87.4687C119.366 87.4687 115.942 87.4687 112.415 87.4687C112.415 84.2248 112.415 80.9809 112.415 77.6387Z"
                    fill="black" />
                <path
                    d="M102.335 77.6328C102.354 77.6329 102.374 77.6331 102.394 77.6332C102.415 77.6332 102.435 77.6331 102.456 77.6331C102.526 77.633 102.595 77.6333 102.664 77.6335C102.714 77.6335 102.763 77.6335 102.813 77.6335C102.948 77.6335 103.083 77.6338 103.218 77.6341C103.359 77.6343 103.499 77.6344 103.64 77.6344C103.877 77.6346 104.113 77.6348 104.35 77.6352C104.593 77.6357 104.837 77.636 105.081 77.6362C105.103 77.6362 105.103 77.6362 105.126 77.6362C105.201 77.6363 105.277 77.6363 105.352 77.6364C105.977 77.6369 106.602 77.6377 107.227 77.6387C107.256 77.696 107.284 77.7534 107.313 77.8108C107.325 77.8348 107.325 77.8348 107.338 77.8594C107.407 77.9985 107.471 78.1398 107.533 78.2828C107.612 78.4661 107.693 78.6484 107.781 78.8283C107.814 78.8976 107.844 78.9667 107.87 79.039C107.912 79.1515 107.964 79.258 108.017 79.3657C108.088 79.5139 108.157 79.662 108.219 79.8145C108.307 80.0298 108.403 80.2415 108.502 80.4519C108.607 80.676 108.709 80.902 108.803 81.131C108.849 81.2446 108.901 81.3558 108.953 81.4669C109.029 81.6291 109.102 81.793 109.174 81.9569C109.198 82.0117 109.223 82.0663 109.247 82.121C109.255 82.1392 109.263 82.1573 109.271 82.1761C109.287 82.2106 109.302 82.2451 109.318 82.2796C109.35 82.3524 109.382 82.4253 109.413 82.4986C109.448 82.5796 109.485 82.6594 109.523 82.7391C109.583 82.8671 109.64 82.9961 109.694 83.127C109.753 83.2708 109.818 83.4102 109.889 83.5488C109.942 83.6546 109.99 83.7606 110.032 83.8713C110.068 83.9584 110.109 84.0429 110.149 84.1278C110.197 84.2288 110.245 84.3291 110.285 84.4336C110.324 84.5358 110.371 84.6336 110.418 84.7323C110.477 84.8553 110.532 84.9787 110.581 85.106C110.625 85.2198 110.674 85.3287 110.73 85.4373C110.773 85.5222 110.815 85.6057 110.848 85.6949C110.891 85.8074 110.944 85.9149 110.996 86.0233C111.06 86.1576 111.121 86.2921 111.176 86.431C111.214 86.5288 111.253 86.6234 111.301 86.7164C111.426 86.9599 111.535 87.2093 111.622 87.4687C110.425 87.4687 109.229 87.4687 107.997 87.4687C107.846 87.1918 107.846 87.1918 107.794 87.0426C107.741 86.8937 107.677 86.7563 107.605 86.6158C107.453 86.3146 107.453 86.3146 107.453 86.2229C105.644 86.2229 103.835 86.2229 101.971 86.2229C101.949 86.2977 101.926 86.3724 101.903 86.4494C101.881 86.4793 101.858 86.5092 101.835 86.54C101.816 86.5843 101.799 86.6292 101.783 86.6745C101.734 86.8064 101.678 86.9334 101.618 87.0607C101.583 87.135 101.55 87.21 101.517 87.2853C101.489 87.3472 101.458 87.4078 101.427 87.4687C100.231 87.4687 99.0351 87.4687 97.8027 87.4687C97.928 87.1681 97.928 87.1681 97.984 87.0624C98.0449 86.9433 98.0924 86.8218 98.139 86.6964C98.1606 86.6421 98.1834 86.5942 98.2133 86.5443C98.2522 86.4782 98.2792 86.4139 98.3051 86.342C98.3796 86.138 98.4725 85.9427 98.5662 85.7471C98.6224 85.6293 98.6742 85.5107 98.723 85.3897C98.7645 85.2928 98.8104 85.1982 98.8561 85.1032C98.9145 84.9819 98.9697 84.8616 99.0161 84.7351C99.0625 84.6088 99.1208 84.4921 99.1825 84.3729C99.2512 84.2378 99.3062 84.0989 99.358 83.9566C99.39 83.8699 99.4229 83.8052 99.4791 83.7314C99.4993 83.6805 99.518 83.629 99.5358 83.5771C99.6026 83.3899 99.6875 83.2129 99.7744 83.0343C99.8367 82.9063 99.8951 82.7781 99.9479 82.6459C99.9887 82.55 100.034 82.4565 100.079 82.3626C100.148 82.2201 100.209 82.0777 100.264 81.9292C100.311 81.8112 100.367 81.6977 100.422 81.5833C100.476 81.4717 100.525 81.3597 100.569 81.2442C100.623 81.105 100.688 80.9739 100.756 80.8411C100.791 80.7683 100.82 80.6959 100.848 80.6199C100.89 80.506 100.94 80.3993 100.996 80.2915C101.056 80.1746 101.11 80.0576 101.157 79.9348C101.211 79.794 101.276 79.6616 101.345 79.5274C101.38 79.4547 101.409 79.3822 101.437 79.3062C101.486 79.1734 101.547 79.0497 101.611 78.9239C101.671 78.8074 101.721 78.6897 101.767 78.5673C101.824 78.4196 101.887 78.2761 101.955 78.1333C102.015 78.0057 102.07 77.8762 102.124 77.7458C102.175 77.6341 102.217 77.6334 102.335 77.6328ZM104.667 80.1075C104.662 80.1212 104.656 80.1349 104.651 80.1491C104.611 80.2509 104.569 80.3499 104.52 80.4472C104.482 80.5207 104.449 80.5939 104.419 80.6709C104.386 80.7551 104.349 80.8343 104.307 80.9144C104.253 81.0199 104.21 81.1258 104.17 81.2371C104.116 81.3856 104.052 81.5223 103.979 81.6625C103.944 81.7336 103.915 81.8041 103.888 81.8784C103.834 82.0263 103.766 82.1668 103.698 82.3087C103.646 82.4174 103.597 82.5263 103.554 82.639C103.503 82.7697 103.443 82.8969 103.378 83.0218C103.368 83.043 103.368 83.043 103.356 83.0647C103.335 83.1054 103.314 83.1459 103.293 83.1864C103.256 83.257 103.256 83.257 103.262 83.3464C104.204 83.3464 105.146 83.3464 106.117 83.3464C106.053 83.0908 105.939 82.8467 105.819 82.6132C105.763 82.5041 105.714 82.3935 105.668 82.2797C105.639 82.2101 105.608 82.142 105.576 82.0738C105.523 81.9609 105.475 81.8468 105.429 81.7312C105.377 81.603 105.32 81.479 105.257 81.3561C105.181 81.2071 105.114 81.0553 105.051 80.9005C104.992 80.7583 104.928 80.6193 104.862 80.4804C104.816 80.3816 104.775 80.2812 104.736 80.1799C104.717 80.1266 104.717 80.1266 104.667 80.1075Z"
                    fill="black" />
                <path
                    d="M90.2446 77.6262C90.3852 77.6265 90.5258 77.6264 90.6664 77.626C91.4617 77.6239 92.2555 77.6263 93.0494 77.6782C93.0771 77.6799 93.1048 77.6817 93.1333 77.6835C93.4689 77.7055 93.7962 77.7461 94.1265 77.8094C94.1964 77.8224 94.2665 77.8329 94.3369 77.8431C94.4967 77.8672 94.6547 77.8981 94.8126 77.9323C94.831 77.9362 94.8494 77.9401 94.8683 77.9442C95.1388 78.0031 95.3952 78.0754 95.6508 78.1814C95.6665 78.1877 95.6821 78.1939 95.6982 78.2003C95.8919 78.2779 96.058 78.3613 96.2172 78.4985C96.2459 78.5184 96.2747 78.5383 96.3035 78.558C96.5869 78.7718 96.808 79.0754 96.9274 79.4089C96.9449 79.4574 96.9654 79.5044 96.986 79.5517C97.1808 80.0397 97.1686 80.5336 97.1686 81.0579C96.0772 81.0579 94.9857 81.0579 93.8612 81.0579C93.8612 80.8711 93.8612 80.6842 93.8612 80.4917C91.9399 80.4917 90.0186 80.4917 88.0391 80.4917C88.0391 80.6412 88.0391 80.7907 88.0391 80.9447C88.0616 80.9521 88.084 80.9596 88.1071 80.9673C88.1239 80.9851 88.1408 81.0028 88.1581 81.0211C88.4069 81.2586 88.8773 81.2434 89.1982 81.2774C89.2496 81.283 89.3009 81.2896 89.3521 81.2965C89.483 81.3132 89.615 81.3187 89.7467 81.3269C89.968 81.3412 90.1878 81.3606 90.4079 81.3878C90.5714 81.4079 90.7331 81.4246 90.8978 81.4302C91.1159 81.4382 91.3322 81.461 91.5491 81.484C91.8853 81.5196 92.2217 81.5521 92.5586 81.5817C92.5804 81.5836 92.6022 81.5855 92.6246 81.5875C92.8213 81.6048 93.018 81.622 93.2147 81.6383C93.412 81.6548 93.6073 81.6731 93.803 81.7035C93.9038 81.7175 94.0048 81.7267 94.1061 81.736C94.2671 81.7511 94.425 81.7731 94.5839 81.8029C94.7175 81.8279 94.8512 81.8456 94.986 81.8628C95.0498 81.8717 95.1121 81.8826 95.1751 81.896C95.2713 81.9162 95.368 81.9317 95.4654 81.9455C95.4935 81.9496 95.5217 81.9536 95.5507 81.9578C95.6249 81.9679 95.6249 81.9679 95.6822 81.95C95.7767 81.936 95.8562 81.9706 95.9453 82.0007C95.9644 82.007 95.9836 82.0133 96.0032 82.0197C96.2922 82.1157 96.5781 82.2176 96.8288 82.3943C96.8527 82.4097 96.8765 82.4251 96.901 82.441C96.9527 82.4766 96.9908 82.5073 97.0327 82.5528C97.0491 82.5682 97.0654 82.5836 97.0823 82.5995C97.3554 82.8743 97.4637 83.1596 97.5339 83.5338C97.5378 83.553 97.5416 83.5722 97.5455 83.592C97.5993 83.8749 97.6037 84.1599 97.6033 84.4469C97.6033 84.4723 97.6033 84.4723 97.6033 84.4983C97.6027 84.7582 97.5951 85.0138 97.5537 85.2708C97.5507 85.2903 97.5477 85.3099 97.5445 85.3301C97.4903 85.67 97.4031 85.954 97.2139 86.2447C97.2021 86.2639 97.1902 86.283 97.178 86.3028C97.0821 86.4504 96.9703 86.5493 96.8288 86.6524C96.8158 86.6628 96.8028 86.6732 96.7894 86.684C96.6727 86.776 96.5522 86.841 96.4168 86.9016C96.3952 86.9113 96.3735 86.921 96.3512 86.931C96.0241 87.0737 95.6856 87.1567 95.3339 87.211C95.2856 87.2191 95.2381 87.2293 95.1903 87.2395C95.0089 87.2763 94.8249 87.2976 94.6413 87.3206C94.6214 87.3231 94.6014 87.3256 94.5808 87.3282C94.255 87.3687 93.9306 87.397 93.6026 87.4125C93.4814 87.4184 93.3604 87.4255 93.2393 87.434C92.6495 87.474 92.0602 87.4748 91.4693 87.4737C91.3267 87.4735 91.184 87.4736 91.0414 87.4739C90.3312 87.475 89.6233 87.4602 88.9139 87.4254C88.7965 87.4197 88.6791 87.4146 88.5617 87.4095C88.2129 87.3941 87.8729 87.3596 87.5291 87.2964C87.4529 87.2831 87.3768 87.2742 87.3001 87.2654C86.9739 87.2231 86.6357 87.1633 86.3401 87.0148C86.3208 87.0055 86.3015 86.9961 86.2816 86.9865C86.2438 86.9679 86.2061 86.9489 86.1686 86.9296C86.1318 86.9109 86.0946 86.8929 86.0571 86.8756C85.7767 86.7451 85.5701 86.5363 85.3887 86.29C85.3783 86.2763 85.368 86.2626 85.3573 86.2485C85.2657 86.1163 85.2212 85.9655 85.1753 85.8128C85.1633 85.773 85.1507 85.7334 85.138 85.6939C85.0828 85.5079 85.0502 85.3193 85.0205 85.1278C85.0166 85.1038 85.0126 85.0799 85.0085 85.0551C84.9669 84.7678 84.9809 84.5053 84.9809 84.2062C86.0125 84.2062 87.0442 84.2062 88.1071 84.2062C88.1071 84.3333 88.1071 84.4604 88.1071 84.5913C90.0284 84.5913 91.9496 84.5913 93.9291 84.5913C93.9291 84.4866 93.9291 84.382 93.9291 84.2742C93.9067 84.2667 93.8843 84.2592 93.8612 84.2515C93.8551 84.2375 93.849 84.2235 93.8428 84.2091C93.8025 84.137 93.756 84.1248 93.6799 84.093C93.6038 84.0731 93.527 84.0609 93.4492 84.0491C93.4245 84.0454 93.3999 84.0416 93.3745 84.0378C92.742 83.9489 92.0988 83.9183 91.4614 83.8852C91.2124 83.8723 90.9651 83.8503 90.7173 83.8236C90.5043 83.8011 90.2917 83.7874 90.078 83.7759C89.8268 83.7623 89.5796 83.7389 89.3308 83.7015C89.2177 83.6847 89.1045 83.6739 88.9906 83.6641C88.5506 83.6251 88.1103 83.5661 87.6767 83.4814C87.6598 83.4784 87.6429 83.4753 87.6256 83.4721C87.4756 83.4437 87.3304 83.4037 87.184 83.3611C86.9958 83.3071 86.8077 83.2592 86.6162 83.2181C86.3408 83.1579 86.0896 83.0685 85.8644 82.8926C85.8644 82.8776 85.8644 82.8627 85.8644 82.8473C85.8479 82.8452 85.8313 82.8431 85.8143 82.8409C85.7406 82.8219 85.7043 82.7942 85.6463 82.7453C85.6269 82.7291 85.6075 82.7129 85.5875 82.6961C85.5667 82.6787 85.546 82.6613 85.5246 82.6434C85.5017 82.6255 85.4788 82.6077 85.4553 82.5893C85.4328 82.5716 85.4104 82.554 85.3872 82.5358C85.3664 82.5196 85.3456 82.5034 85.3241 82.4866C85.2746 82.4388 85.2602 82.4162 85.2527 82.349C85.2378 82.349 85.2228 82.349 85.2074 82.349C84.9359 81.8198 84.8125 81.3134 84.8152 80.7168C84.8153 80.6983 84.8153 80.6799 84.8153 80.6609C84.8163 80.3727 84.8339 80.0954 84.8903 79.8122C84.8969 79.7748 84.9036 79.7374 84.9102 79.7C84.9973 79.2277 85.1728 78.8331 85.5472 78.5211C85.5655 78.5029 85.5837 78.4847 85.6024 78.4659C85.893 78.1754 86.2382 78.0249 86.6346 77.9323C86.6572 77.927 86.6798 77.9217 86.7031 77.9162C86.7807 77.8982 86.8584 77.8805 86.9362 77.8629C86.9606 77.8573 86.985 77.8518 87.0102 77.846C88.0762 77.6096 89.1591 77.6232 90.2446 77.6262Z"
                    fill="black" />
                <path
                    d="M70.5503 77.6387C72.9423 77.6352 72.9423 77.6352 75.3826 77.6316C76.1364 77.6301 76.1364 77.6301 76.9054 77.6285C77.5216 77.628 77.5216 77.628 77.8106 77.6279C78.0113 77.6278 78.212 77.6274 78.4128 77.6268C78.6449 77.626 78.8771 77.6257 79.1093 77.6259C79.2278 77.6259 79.3462 77.6258 79.4647 77.6252C80.1156 77.622 80.7463 77.6531 81.3788 77.8199C81.4292 77.8311 81.4797 77.8421 81.5303 77.8525C82.6723 78.0954 82.6723 78.0954 83.0779 78.4768C83.0853 78.4992 83.0928 78.5216 83.1005 78.5447C83.1173 78.551 83.1341 78.5572 83.1514 78.5636C83.3084 78.63 83.4428 78.8412 83.5084 78.9955C83.5335 79.0484 83.5637 79.0956 83.5954 79.1448C83.6717 79.271 83.7184 79.3994 83.7617 79.5399C83.7695 79.5647 83.7772 79.5895 83.7852 79.6151C83.8506 79.8311 83.8899 80.0425 83.916 80.2661C83.9181 80.2828 83.9201 80.2995 83.9222 80.3167C83.97 80.7177 83.9681 81.1187 83.9674 81.5219C83.9673 81.6194 83.9674 81.7168 83.9675 81.8143C83.9676 81.9778 83.9675 82.1413 83.9673 82.3048C83.967 82.4925 83.9671 82.6802 83.9673 82.8679C83.9675 83.0305 83.9676 83.1932 83.9675 83.3558C83.9674 83.4523 83.9674 83.5488 83.9675 83.6452C83.9681 84.0386 83.966 84.4278 83.916 84.8187C83.9115 84.8568 83.9069 84.8949 83.9024 84.933C83.8549 85.3289 83.7329 85.7329 83.5083 86.0644C83.4952 86.0862 83.4822 86.1079 83.4687 86.1303C83.3916 86.2581 83.3106 86.3798 83.1911 86.4721C83.1762 86.4721 83.1612 86.4721 83.1458 86.4721C83.1383 86.4946 83.1309 86.517 83.1232 86.5401C83.0782 86.5797 83.0336 86.616 82.9858 86.6519C82.9724 86.6621 82.9591 86.6722 82.9453 86.6827C82.8273 86.7706 82.7097 86.8306 82.5742 86.8885C82.5168 86.913 82.4597 86.938 82.4027 86.9633C82.1925 87.0547 81.9875 87.1167 81.7636 87.1641C81.6959 87.1794 81.6296 87.199 81.5629 87.2182C81.1535 87.3266 80.7394 87.3866 80.3185 87.4263C80.2974 87.4283 80.2764 87.4303 80.2547 87.4323C79.8024 87.4741 79.3529 87.4813 78.899 87.4792C78.7847 87.4788 78.6703 87.479 78.556 87.479C78.3358 87.4791 78.1156 87.4787 77.8954 87.4781C77.6397 87.4774 77.3841 87.4774 77.1284 87.4773C76.4559 87.4768 75.7833 87.4756 75.1108 87.4744C73.6058 87.4725 72.1009 87.4706 70.5503 87.4687C70.5503 84.2248 70.5503 80.9809 70.5503 77.6387ZM73.5859 80.5152C73.5859 81.8756 73.5859 83.2359 73.5859 84.6375C75.9931 84.6375 78.4003 84.6375 80.8804 84.6375C80.8804 83.2772 80.8804 81.9168 80.8804 80.5152C78.4732 80.5152 76.066 80.5152 73.5859 80.5152Z"
                    fill="black" />
                <path
                    d="M60.4013 77.6367C60.421 77.6368 60.4406 77.6369 60.4609 77.6369C60.492 77.6369 60.492 77.6369 60.5238 77.6369C60.5938 77.6368 60.6639 77.6369 60.7339 77.6371C60.7839 77.6371 60.8339 77.6371 60.8839 77.6371C61.0201 77.6371 61.1563 77.6372 61.2925 77.6373C61.4347 77.6375 61.5768 77.6375 61.719 77.6375C61.9578 77.6376 62.1965 77.6377 62.4353 77.6379C62.6813 77.6381 62.9272 77.6383 63.1732 77.6384C63.1959 77.6384 63.1959 77.6384 63.2191 77.6384C63.2951 77.6384 63.3711 77.6385 63.4471 77.6385C64.0781 77.6387 64.709 77.6391 65.34 77.6396C65.3462 77.6552 65.3523 77.6707 65.3587 77.6867C65.3668 77.7071 65.3749 77.7275 65.3833 77.7485C65.3913 77.7687 65.3994 77.7889 65.4077 77.8097C65.4334 77.873 65.4616 77.9345 65.4916 77.9958C65.5022 78.0178 65.5129 78.0398 65.5238 78.0624C65.5458 78.1073 65.5677 78.1522 65.5897 78.197C65.6417 78.3044 65.6905 78.4108 65.7308 78.5231C65.765 78.6142 65.8066 78.7021 65.8469 78.7905C65.8559 78.8105 65.865 78.8305 65.8743 78.8511C65.921 78.9542 65.9681 79.0571 66.0154 79.16C66.0485 79.2324 66.0788 79.3051 66.1074 79.3794C66.1501 79.4887 66.2026 79.5923 66.2559 79.6967C66.304 79.7916 66.3449 79.8875 66.3829 79.9868C66.4147 80.0651 66.4534 80.1396 66.4918 80.2149C66.5341 80.2991 66.5703 80.3854 66.6045 80.4731C66.665 80.6275 66.7328 80.7778 66.8026 80.9281C66.868 81.0695 66.9329 81.2108 66.9937 81.3542C67.0228 81.4199 67.0522 81.4854 67.0815 81.551C67.1335 81.6674 67.1847 81.784 67.233 81.902C67.3119 82.0938 67.3991 82.283 67.4949 82.4669C67.5321 82.5395 67.5601 82.614 67.5884 82.6905C67.6322 82.8071 67.683 82.9169 67.7399 83.0275C67.8001 83.1444 67.8541 83.2614 67.9013 83.3842C67.9457 83.4993 67.9949 83.6088 68.0514 83.7183C68.1019 83.8168 68.1428 83.9104 68.1746 84.0161C68.2335 84.1833 68.3179 84.3455 68.3997 84.5025C68.4486 84.5983 68.4856 84.6989 68.5246 84.799C68.5647 84.9002 68.6102 84.9961 68.6602 85.0928C68.7282 85.2247 68.7779 85.3545 68.8233 85.4956C68.8482 85.559 68.8775 85.6055 68.9162 85.6607C68.977 85.7605 69.0166 85.8726 69.0609 85.9804C69.0831 86.0336 69.1053 86.0868 69.1275 86.1399C69.1384 86.1659 69.1492 86.1919 69.1604 86.2186C69.2647 86.4668 69.3766 86.7116 69.4924 86.9545C69.5734 87.1246 69.6348 87.2873 69.6895 87.4696C68.4934 87.4696 67.2973 87.4696 66.0649 87.4696C66.0275 87.3799 65.9902 87.2903 65.9517 87.1978C65.9259 87.1456 65.8996 87.0936 65.8724 87.0421C65.8185 86.9367 65.7743 86.833 65.7364 86.7208C65.6887 86.5794 65.6257 86.4559 65.5519 86.3269C65.5212 86.2692 65.5212 86.2692 65.5212 86.2239C63.7196 86.2314 61.9179 86.2389 60.0617 86.2466C59.9975 86.3589 59.9489 86.4567 59.9073 86.5764C59.864 86.6967 59.8159 86.8107 59.7573 86.9246C59.6679 87.1018 59.5935 87.2862 59.518 87.4696C58.3293 87.4696 57.1407 87.4696 55.916 87.4696C55.9325 87.3706 55.9453 87.3077 55.9831 87.2196C55.9919 87.199 56.0007 87.1784 56.0098 87.1571C56.0237 87.1254 56.0237 87.1254 56.0378 87.0931C56.0468 87.0718 56.0559 87.0505 56.0652 87.0285C56.1068 86.9323 56.1476 86.8514 56.2105 86.7675C56.2328 86.7082 56.2533 86.6494 56.2728 86.5891C56.3253 86.4335 56.3885 86.2924 56.4646 86.1468C56.5101 86.0577 56.5472 85.9657 56.5843 85.8728C56.6328 85.7518 56.6847 85.635 56.7443 85.5189C56.8144 85.3823 56.8721 85.2436 56.9277 85.1008C56.9762 84.9774 57.0293 84.8576 57.0896 84.7395C57.149 84.6212 57.2005 84.4996 57.2526 84.3779C57.3108 84.2419 57.3697 84.1071 57.437 83.9753C57.4639 83.9214 57.4865 83.8662 57.5089 83.8103C57.5513 83.7069 57.5968 83.6054 57.6448 83.5045C57.7065 83.3743 57.7636 83.2426 57.8189 83.1096C57.8802 82.9622 57.9445 82.8169 58.013 82.6727C58.0526 82.5889 58.0897 82.5045 58.1248 82.4187C58.1723 82.3026 58.2246 82.189 58.2782 82.0755C58.3271 81.9718 58.3737 81.8672 58.4193 81.7619C58.4774 81.6276 58.5383 81.4948 58.6008 81.3625C58.641 81.2771 58.6783 81.1911 58.7138 81.1036C58.7539 81.005 58.7994 80.9109 58.8483 80.8163C58.9046 80.7069 58.9514 80.5967 58.9927 80.4808C59.0538 80.3095 59.1304 80.1475 59.2097 79.984C59.2694 79.861 59.3247 79.7374 59.3759 79.6105C59.4131 79.5223 59.4541 79.4361 59.4953 79.3497C59.5563 79.2216 59.6137 79.093 59.6672 78.9616C59.7342 78.802 59.807 78.6447 59.8785 78.4869C59.9104 78.4162 59.9419 78.3453 59.9734 78.2743C59.9938 78.2283 60.0143 78.1824 60.0348 78.1365C60.0651 78.0685 60.0949 78.0004 60.1245 77.9321C60.1316 77.9156 60.1388 77.8992 60.1461 77.8823C60.1605 77.8491 60.1748 77.816 60.1891 77.7828C60.2524 77.6371 60.2524 77.6371 60.4013 77.6367ZM62.7575 80.1311C62.696 80.2643 62.6363 80.3981 62.5791 80.5332C62.5308 80.6466 62.4802 80.7586 62.4276 80.8701C62.3692 80.9936 62.315 81.1182 62.2632 81.2446C62.2192 81.3503 62.1709 81.454 62.1232 81.5581C62.0734 81.6677 62.0258 81.7779 61.9802 81.8893C61.9372 81.9931 61.891 82.095 61.8428 82.1965C61.7768 82.3356 61.7176 82.4768 61.6601 82.6196C61.6212 82.7151 61.5789 82.8071 61.5313 82.8986C61.46 83.0429 61.4071 83.1958 61.3529 83.3474C62.2949 83.3474 63.2368 83.3474 64.2073 83.3474C64.1916 83.2132 64.1916 83.2132 64.146 83.1004C64.1344 83.0779 64.1344 83.0779 64.1227 83.0549C64.1146 83.0398 64.1066 83.0247 64.0983 83.0091C64.0826 82.9786 64.0668 82.9482 64.0511 82.9178C64.027 82.8717 64.003 82.8256 63.9789 82.7794C63.971 82.7641 63.9631 82.7487 63.955 82.7329C63.948 82.7193 63.941 82.7057 63.9337 82.6917C63.9128 82.6452 63.9128 82.6452 63.8916 82.581C63.8662 82.5053 63.8355 82.4343 63.8025 82.3616C63.7962 82.3477 63.7899 82.3337 63.7834 82.3194C63.7629 82.2741 63.7423 82.2289 63.7217 82.1838C63.7074 82.1523 63.6931 82.1209 63.6789 82.0894C63.6121 81.9421 63.5448 81.795 63.4772 81.648C63.466 81.6239 63.4549 81.5997 63.4434 81.5748C63.4229 81.5302 63.4023 81.4857 63.3816 81.4412C63.3369 81.3444 63.2941 81.2475 63.2551 81.1482C63.2122 81.0392 63.1628 80.9343 63.1114 80.829C63.0339 80.6683 62.9645 80.5067 62.9021 80.3395C62.8683 80.2613 62.8304 80.1997 62.7801 80.1311C62.7726 80.1311 62.7652 80.1311 62.7575 80.1311Z"
                    fill="black" />
                <path
                    d="M44.7024 77.6387C45.734 77.6387 46.7657 77.6387 47.8286 77.6387C47.8286 79.8586 47.8286 82.0785 47.8286 84.3657C50.2283 84.3657 52.6281 84.3657 55.1005 84.3657C55.1005 85.3896 55.1005 86.4136 55.1005 87.4687C51.6691 87.4687 48.2377 87.4687 44.7024 87.4687C44.7024 84.2248 44.7024 80.9809 44.7024 77.6387Z"
                    fill="black" />
                <path
                    d="M34.8661 77.6249C34.9808 77.625 35.0955 77.625 35.2102 77.6249C35.2349 77.6248 35.2349 77.6248 35.2602 77.6248C35.2938 77.6248 35.3274 77.6247 35.361 77.6247C35.6738 77.6243 35.9867 77.6245 36.2996 77.6249C36.5836 77.6252 36.8676 77.6249 37.1517 77.6242C37.4457 77.6236 37.7398 77.6233 38.0339 77.6235C38.0674 77.6236 38.1009 77.6236 38.1344 77.6236C38.1508 77.6236 38.1673 77.6236 38.1843 77.6236C38.2983 77.6237 38.4123 77.6235 38.5263 77.6231C39.44 77.6206 40.3008 77.6729 41.191 77.887C41.2263 77.8953 41.2263 77.8953 41.2623 77.9037C41.8893 78.0519 42.4475 78.2869 42.8674 78.793C42.8823 78.8098 42.8973 78.8266 42.9127 78.844C43.3934 79.5049 43.4111 80.2971 43.4111 81.0806C42.3944 81.0806 41.3777 81.0806 40.3301 81.0806C40.3301 80.8938 40.3301 80.7069 40.3301 80.5144C37.923 80.5144 35.5158 80.5144 33.0356 80.5144C33.0356 81.8598 33.0356 83.2052 33.0356 84.5914C35.4353 84.5914 37.8351 84.5914 40.3075 84.5914C40.3075 84.3447 40.3075 84.098 40.3075 83.8439C39.1039 83.8439 37.9003 83.8439 36.6602 83.8439C36.6602 83.1488 36.6602 82.4537 36.6602 81.7375C37.5141 81.737 38.3679 81.7366 39.2218 81.7363C39.3225 81.7363 39.4232 81.7363 39.5239 81.7362C39.5439 81.7362 39.564 81.7362 39.5846 81.7362C39.9097 81.7361 40.2347 81.7359 40.5598 81.7357C40.8931 81.7355 41.2263 81.7354 41.5596 81.7353C41.7654 81.7353 41.9713 81.7352 42.1771 81.735C42.318 81.7349 42.459 81.7349 42.5999 81.7349C42.6813 81.7349 42.7628 81.7349 42.8442 81.7348C42.9323 81.7347 43.0204 81.7347 43.1085 81.7348C43.1475 81.7347 43.1475 81.7347 43.1873 81.7346C43.2107 81.7346 43.2341 81.7346 43.2582 81.7347C43.2786 81.7347 43.299 81.7347 43.3199 81.7347C43.3658 81.7375 43.3658 81.7375 43.3884 81.7601C43.3908 81.7988 43.3916 81.8377 43.3917 81.8764C43.392 81.9143 43.392 81.9143 43.3922 81.9529C43.3923 81.9948 43.3923 81.9948 43.3924 82.0376C43.3926 82.0814 43.3926 82.0814 43.3929 82.1262C43.3933 82.2237 43.3936 82.3212 43.3938 82.4187C43.3939 82.4523 43.394 82.486 43.3941 82.5197C43.3945 82.6784 43.3948 82.837 43.395 82.9957C43.3952 83.1778 43.3958 83.3599 43.3968 83.5421C43.3975 83.6833 43.3978 83.8246 43.3979 83.9658C43.3979 84.0499 43.3981 84.134 43.3987 84.218C43.4023 84.7691 43.3526 85.2575 43.1392 85.7691C43.128 85.7964 43.1168 85.8237 43.1052 85.8519C43.0718 85.9264 43.0347 85.996 42.9934 86.0664C42.9803 86.0889 42.9673 86.1114 42.9538 86.1345C42.9136 86.1981 42.8702 86.255 42.8221 86.3127C42.8093 86.3284 42.7965 86.3441 42.7833 86.3602C42.7049 86.4528 42.631 86.5194 42.5276 86.5845C42.5112 86.6018 42.4949 86.6191 42.478 86.6369C42.3414 86.7674 42.1781 86.8587 42.0015 86.9237C41.9399 86.9464 41.8795 86.9716 41.8189 86.997C41.636 87.0728 41.4516 87.1271 41.259 87.1734C41.2275 87.1812 41.1961 87.1889 41.1647 87.1967C40.9772 87.2424 40.7892 87.2816 40.5992 87.3159C40.5368 87.3273 40.4749 87.3396 40.4128 87.3527C39.8038 87.4739 39.1949 87.4811 38.5764 87.4785C38.4543 87.4781 38.3321 87.4782 38.21 87.4782C38.005 87.4782 37.7999 87.4778 37.5949 87.4772C37.3605 87.4765 37.1262 87.4762 36.8919 87.4763C36.6387 87.4763 36.3855 87.476 36.1324 87.4756C36.0611 87.4755 35.9898 87.4754 35.9185 87.4754C35.3426 87.4751 34.7693 87.4621 34.1944 87.4281C34.0791 87.4212 33.9638 87.4154 33.8485 87.4096C33.1542 87.3705 32.4247 87.2408 31.767 87.0149C31.7456 87.0077 31.7243 87.0006 31.7022 86.9932C31.1369 86.7967 31.1369 86.7967 30.9288 86.6072C30.9288 86.5922 30.9288 86.5773 30.9288 86.5619C30.9125 86.5567 30.8961 86.5516 30.8793 86.5463C30.8031 86.5108 30.7577 86.4644 30.7023 86.4033C30.6871 86.3877 30.6718 86.372 30.6562 86.3559C30.3266 86.0077 30.136 85.5566 30.0453 85.0896C30.0415 85.0723 30.0378 85.0549 30.0339 85.0369C29.9908 84.8163 29.9931 84.5977 29.9931 84.3739C29.9929 84.3295 29.9927 84.2851 29.9925 84.2406C29.992 84.1206 29.9918 84.0005 29.9917 83.8805C29.9916 83.8052 29.9915 83.7299 29.9913 83.6546C29.9907 83.3911 29.9904 83.1275 29.9904 82.864C29.9903 82.6198 29.9896 82.3756 29.9887 82.1314C29.9879 81.9206 29.9875 81.7099 29.9875 81.4992C29.9875 81.3738 29.9873 81.2484 29.9866 81.123C29.9806 79.8784 29.9806 79.8784 30.2265 79.3593C30.2365 79.3376 30.2365 79.3376 30.2466 79.3155C30.3352 79.1238 30.4291 78.9547 30.5664 78.793C30.5919 78.7581 30.6173 78.7232 30.6428 78.6883C30.7247 78.5826 30.8214 78.5086 30.9288 78.4306C30.9461 78.416 30.9634 78.4014 30.9812 78.3863C31.0529 78.3318 31.1286 78.2917 31.2092 78.2522C31.225 78.2444 31.2409 78.2366 31.2572 78.2286C32.38 77.6835 33.6427 77.6233 34.8661 77.6249Z"
                    fill="black" />
            </g>
        </mask>
        <g mask="url(#mask0_48_292)">
        </g>
    </g>
    <defs>
        <clipPath id="clip0_48_292">
            <rect width="92.79" height="9.83" fill="white" transform="translate(30 77.6387)" />
        </clipPath>
        <clipPath id="clip1_48_292">
            <rect width="92.79" height="9.83" fill="white" transform="translate(30 77.6387)" />
        </clipPath>
    </defs>
</svg>