<svg width="666" height="71" viewBox="0 0 4096 434" fill="none" xmlns="http://www.w3.org/2000/svg">
<path class="g" d="M214.801 -0.572923C219.864 -0.566466 224.927 -0.567798 229.99 -0.574162C231.084 -0.575515 231.084 -0.575515 232.2 -0.576895C233.682 -0.578746 235.165 -0.580609 236.647 -0.582482C250.458 -0.598949 264.269 -0.590438 278.081 -0.573496C290.618 -0.558826 303.156 -0.573411 315.693 -0.602267C328.675 -0.631914 341.656 -0.642559 354.638 -0.633084C356.116 -0.632062 357.595 -0.631068 359.073 -0.630101C359.8 -0.629625 360.526 -0.629148 361.275 -0.628657C366.308 -0.626525 371.34 -0.636219 376.372 -0.650872C416.705 -0.7604 454.704 1.54722 494 11C495.558 11.3655 495.558 11.3655 497.147 11.7383C524.824 18.2784 549.465 28.656 568 51C568.66 51.7425 569.32 52.485 570 53.25C591.221 82.4287 592 117.408 592 152C547.12 152 502.24 152 456 152C456 143.75 456 135.5 456 127C349.74 127 243.48 127 134 127C134 186.4 134 245.8 134 307C239.93 307 345.86 307 455 307C455 296.11 455 285.22 455 274C401.87 274 348.74 274 294 274C294 243.31 294 212.62 294 181C331.692 180.978 369.383 180.96 407.075 180.949C411.52 180.948 415.965 180.946 420.41 180.945C421.295 180.945 422.18 180.945 423.092 180.944C437.44 180.94 451.789 180.932 466.137 180.923C480.849 180.914 495.561 180.908 510.272 180.906C519.358 180.905 528.443 180.9 537.528 180.892C543.75 180.887 549.971 180.885 556.193 180.887C559.788 180.887 563.383 180.886 566.978 180.881C570.866 180.875 574.754 180.877 578.642 180.88C580.366 180.875 580.366 180.875 582.124 180.871C583.157 180.873 584.19 180.875 585.254 180.877C586.153 180.877 587.052 180.876 587.978 180.876C590 181 590 181 591 182C591.105 183.709 591.14 185.423 591.147 187.135C591.158 188.806 591.158 188.806 591.169 190.511C591.173 192.361 591.173 192.361 591.177 194.249C591.187 196.186 591.187 196.186 591.197 198.162C591.218 202.466 591.228 206.77 591.238 211.074C591.242 212.561 591.246 214.048 591.251 215.535C591.27 222.54 591.284 229.546 591.292 236.551C591.302 244.592 591.328 252.632 591.369 260.673C591.399 266.909 591.414 273.146 591.417 279.382C591.419 283.094 591.428 286.806 591.453 290.518C591.612 314.848 589.42 336.413 580 359C579.505 360.205 579.01 361.411 578.5 362.652C577.025 365.944 575.386 369.014 573.562 372.125C572.986 373.118 572.41 374.11 571.816 375.133C570.039 377.938 568.124 380.45 566 383C565.435 383.692 564.871 384.384 564.289 385.098C560.827 389.186 557.564 392.122 553 395C552.278 395.763 551.556 396.526 550.812 397.313C544.782 403.075 537.574 407.103 529.777 409.973C527.058 410.979 524.392 412.087 521.718 413.209C513.644 416.559 505.506 418.953 497 421C495.613 421.342 494.227 421.685 492.84 422.027C484.563 424.045 476.263 425.778 467.879 427.289C465.122 427.794 462.391 428.338 459.65 428.913C432.766 434.266 405.889 434.582 378.585 434.471C373.194 434.454 367.802 434.457 362.41 434.458C353.36 434.456 344.309 434.439 335.259 434.412C324.914 434.38 314.57 434.37 304.225 434.371C293.05 434.372 281.874 434.358 270.699 434.34C267.553 434.336 264.406 434.335 261.26 434.334C235.837 434.321 210.531 433.744 185.151 432.242C180.062 431.942 174.972 431.683 169.881 431.426C139.236 429.7 107.032 423.976 78 414C77.0564 413.684 76.1128 413.368 75.1406 413.043C50.1841 404.367 50.1841 404.367 41 396C41 395.34 41 394.68 41 394C40.2781 393.773 39.5562 393.546 38.8125 393.313C35.4513 391.744 33.4466 389.695 31 387C30.3284 386.309 29.6568 385.618 28.9648 384.906C14.415 369.533 6.00444 349.616 1.99997 329C1.83373 328.232 1.66748 327.464 1.49619 326.673C-0.40428 316.931 -0.303971 307.282 -0.306422 297.4C-0.314057 295.439 -0.322486 293.477 -0.331645 291.516C-0.353479 286.216 -0.362376 280.915 -0.367472 275.615C-0.371132 272.291 -0.377377 268.966 -0.384471 265.642C-0.408935 254.007 -0.422011 242.372 -0.425563 230.737C-0.429187 219.955 -0.459017 209.173 -0.500972 198.39C-0.535883 189.086 -0.55112 179.782 -0.551814 170.478C-0.5526 164.942 -0.56103 159.407 -0.589808 153.871C-0.858011 98.9224 -0.858009 98.9224 9.99997 76C10.4391 75.0441 10.4391 75.0441 10.8872 74.0689C14.7946 65.6044 18.9426 58.1386 25 51C26.1261 49.4592 27.2511 47.9175 28.375 46.375C31.9891 41.7109 36.2564 38.4446 41 35C41.7631 34.3542 42.5262 33.7084 43.3125 33.043C46.4772 30.6373 49.8196 28.8652 53.375 27.125C54.0754 26.7799 54.7759 26.4347 55.4975 26.0791C105.059 2.01632 160.796 -0.64361 214.801 -0.572923Z" fill="black"/>
<path class="l" d="M649 0C694.54 0 740.08 0 787 0C787 98.01 787 196.02 787 297C892.93 297 998.86 297 1108 297C1108 342.21 1108 387.42 1108 434C956.53 434 805.06 434 649 434C649 290.78 649 147.56 649 0Z" fill="black"/>
<path class="a" d="M1341.99 -0.129028C1342.86 -0.126115 1343.73 -0.123203 1344.62 -0.120202C1346 -0.121483 1346 -0.121483 1347.4 -0.122791C1350.49 -0.124448 1353.58 -0.11892 1356.68 -0.113472C1358.88 -0.113191 1361.09 -0.113348 1363.3 -0.113915C1369.31 -0.114203 1375.32 -0.108304 1381.33 -0.101341C1387.61 -0.0951096 1393.88 -0.0945038 1400.16 -0.0933155C1410.7 -0.0905559 1421.24 -0.0843003 1431.78 -0.0753865C1442.64 -0.066213 1453.49 -0.0591319 1464.35 -0.0548787C1465.36 -0.0544846 1465.36 -0.0544846 1466.38 -0.0540825C1469.73 -0.0527775 1473.09 -0.0515138 1476.44 -0.0502706C1504.3 -0.0398047 1532.15 -0.022204 1560 5.29885e-05C1560.27 0.685735 1560.54 1.37142 1560.83 2.07788C1561.18 2.97785 1561.54 3.87783 1561.91 4.80508C1562.27 5.69701 1562.62 6.58894 1562.99 7.5079C1564.12 10.3011 1565.37 13.0182 1566.69 15.7266C1567.16 16.696 1567.63 17.6654 1568.12 18.6641C1569.08 20.6459 1570.05 22.6277 1571.02 24.6094C1573.32 29.3514 1575.47 34.0466 1577.25 39.0069C1578.76 43.0251 1580.6 46.9079 1582.38 50.8126C1582.77 51.6948 1583.17 52.577 1583.58 53.4859C1585.65 58.0388 1587.73 62.5831 1589.81 67.1251C1591.27 70.3211 1592.61 73.533 1593.88 76.8126C1595.76 81.6362 1598.08 86.2117 1600.43 90.8187C1602.55 95.0123 1604.36 99.2426 1606.04 103.629C1607.44 107.087 1609.15 110.376 1610.84 113.699C1612.71 117.416 1614.31 121.228 1615.82 125.101C1618.49 131.915 1621.48 138.551 1624.56 145.188C1627.45 151.43 1630.31 157.669 1633 164C1634.28 166.9 1635.58 169.793 1636.88 172.688C1639.17 177.829 1641.43 182.975 1643.56 188.188C1647.05 196.652 1650.89 205.007 1655.12 213.125C1656.76 216.333 1658 219.622 1659.25 223C1661.18 228.148 1663.43 232.995 1665.94 237.875C1668.59 243.039 1670.98 248.204 1673.06 253.625C1675.02 258.706 1677.19 263.543 1679.69 268.375C1681.92 272.724 1683.72 276.859 1685.13 281.523C1687.73 288.907 1691.45 296.067 1695.06 303C1697.22 307.228 1698.86 311.668 1700.58 316.088C1702.35 320.557 1704.35 324.793 1706.56 329.063C1709.56 334.884 1711.76 340.614 1713.76 346.844C1714.86 349.642 1716.15 351.696 1717.86 354.133C1720.55 358.542 1722.29 363.489 1724.25 368.25C1725.23 370.598 1726.21 372.946 1727.19 375.293C1727.67 376.439 1728.15 377.586 1728.64 378.767C1733.25 389.724 1738.19 400.53 1743.3 411.258C1746.87 418.768 1749.59 425.95 1752 434C1699.2 434 1646.4 434 1592 434C1590.35 430.04 1588.7 426.08 1587 422C1585.86 419.693 1584.7 417.398 1583.5 415.125C1581.12 410.469 1579.17 405.89 1577.5 400.938C1575.39 394.694 1572.61 389.243 1569.36 383.547C1568 381 1568 381 1568 379C1488.47 379.33 1408.94 379.66 1327 380C1324.17 384.959 1322.02 389.279 1320.19 394.563C1318.27 399.873 1316.15 404.909 1313.56 409.938C1309.62 417.758 1306.34 425.9 1303 434C1250.53 434 1198.06 434 1144 434C1144.73 429.629 1145.29 426.852 1146.96 422.961C1147.35 422.051 1147.74 421.141 1148.14 420.203C1148.75 418.803 1148.75 418.803 1149.38 417.375C1149.77 416.434 1150.17 415.493 1150.59 414.523C1152.42 410.274 1154.22 406.704 1157 403C1157.98 400.381 1158.89 397.784 1159.75 395.125C1162.07 388.255 1164.86 382.026 1168.21 375.594C1170.22 371.661 1171.86 367.598 1173.5 363.5C1175.64 358.155 1177.93 352.998 1180.56 347.875C1183.66 341.845 1186.2 335.719 1188.66 329.414C1190.8 323.965 1193.14 318.678 1195.8 313.465C1198.43 308.241 1200.7 302.872 1203 297.5C1205.57 291.492 1208.17 285.542 1211.14 279.721C1212.33 277.343 1213.33 274.904 1214.31 272.438C1216.18 267.872 1218.2 263.393 1220.31 258.938C1223.04 253.189 1225.56 247.375 1228 241.5C1230.7 234.992 1233.54 228.577 1236.57 222.211C1238.32 218.512 1239.95 214.788 1241.5 211C1243.6 205.871 1245.91 200.857 1248.27 195.848C1250.43 191.265 1252.49 186.647 1254.5 182C1257.07 176.07 1259.75 170.208 1262.52 164.366C1264.29 160.595 1265.94 156.797 1267.5 152.938C1269.27 148.583 1271.28 144.428 1273.44 140.25C1275.92 135.422 1277.99 130.557 1279.81 125.438C1282.51 117.877 1285.89 110.724 1289.39 103.507C1292.03 98.0734 1294.47 92.6172 1296.73 87.0157C1298.37 83.1214 1300.18 79.3159 1302 75.5001C1304.69 69.8457 1307.22 64.1682 1309.59 58.3672C1312.55 51.3166 1315.76 44.3743 1318.91 37.4085C1320.32 34.2845 1321.72 31.1534 1323.1 28.0206C1324 25.9915 1324.91 23.9643 1325.81 21.9376C1327.15 18.9358 1328.47 15.9258 1329.77 12.9102C1330.09 12.1852 1330.4 11.4602 1330.73 10.7132C1331.36 9.24969 1332 7.78535 1332.63 6.32012C1335.42 -0.112301 1335.42 -0.112301 1341.99 -0.129028ZM1446 110C1443.29 115.881 1440.65 121.787 1438.12 127.75C1435.99 132.759 1433.76 137.703 1431.44 142.625C1428.86 148.077 1426.47 153.58 1424.18 159.16C1422.24 163.826 1420.11 168.406 1418 173C1415.81 177.84 1413.7 182.707 1411.69 187.625C1409.79 192.209 1407.75 196.708 1405.62 201.188C1402.71 207.33 1400.1 213.562 1397.56 219.867C1395.84 224.083 1393.98 228.145 1391.88 232.188C1388.72 238.558 1386.39 245.307 1384 252C1425.58 252 1467.16 252 1510 252C1509.31 246.075 1509.31 246.075 1507.29 241.098C1506.78 240.103 1506.78 240.103 1506.26 239.088C1505.91 238.42 1505.55 237.751 1505.19 237.063C1504.49 235.72 1503.8 234.378 1503.11 233.035C1502.04 230.998 1500.98 228.962 1499.92 226.925C1499.57 226.247 1499.22 225.57 1498.86 224.871C1498.55 224.271 1498.24 223.671 1497.92 223.053C1497 221 1497 221 1496.06 218.166C1494.94 214.823 1493.59 211.687 1492.13 208.477C1491.85 207.862 1491.57 207.247 1491.29 206.613C1490.38 204.616 1489.47 202.62 1488.56 200.625C1487.93 199.237 1487.3 197.849 1486.67 196.46C1483.72 189.956 1480.76 183.46 1477.77 176.973C1477.28 175.905 1476.79 174.838 1476.28 173.738C1475.37 171.771 1474.47 169.805 1473.55 167.84C1471.58 163.566 1469.69 159.288 1467.97 154.906C1466.07 150.092 1463.89 145.461 1461.62 140.813C1458.2 133.716 1455.14 126.58 1452.39 119.199C1450.89 115.748 1449.22 113.026 1447 110C1446.67 110 1446.34 110 1446 110Z" fill="black"/>
<path class="d" d="M1790 -5.96046e-07C1895.59 -0.154688 1895.59 -0.154688 2003.31 -0.312501C2036.59 -0.380781 2036.59 -0.380781 2070.53 -0.45044C2097.73 -0.473023 2097.73 -0.473023 2110.49 -0.477219C2119.35 -0.481856 2128.21 -0.500084 2137.07 -0.527878C2147.32 -0.559978 2157.57 -0.574117 2167.82 -0.567225C2173.05 -0.564247 2178.28 -0.568562 2183.5 -0.596076C2212.24 -0.739774 2240.08 0.636782 2268 8C2270.23 8.49487 2272.45 8.97715 2274.69 9.4375C2325.1 20.1643 2325.1 20.1643 2343 37C2343.33 37.99 2343.66 38.98 2344 40C2344.74 40.2759 2345.48 40.5517 2346.25 40.8359C2353.18 43.7664 2359.11 53.0897 2362 59.9006C2363.11 62.2384 2364.45 64.3205 2365.85 66.4961C2369.21 72.0675 2371.27 77.7366 2373.19 83.9375C2373.53 85.0336 2373.87 86.1297 2374.23 87.259C2377.11 96.7958 2378.85 106.128 2380 116C2380.09 116.737 2380.18 117.474 2380.27 118.233C2382.38 135.94 2382.3 153.644 2382.27 171.444C2382.26 175.747 2382.27 180.051 2382.27 184.355C2382.28 191.573 2382.27 198.792 2382.26 206.011C2382.25 214.298 2382.25 222.584 2382.26 230.871C2382.27 238.051 2382.27 245.231 2382.27 252.412C2382.27 256.672 2382.27 260.931 2382.27 265.191C2382.3 282.558 2382.2 299.741 2380 317C2379.8 318.682 2379.6 320.365 2379.4 322.047C2377.3 339.524 2371.92 357.361 2362 372C2361.42 372.959 2360.85 373.918 2360.25 374.906C2356.85 380.549 2353.27 385.924 2348 390C2347.34 390 2346.68 390 2346 390C2345.67 390.99 2345.34 391.98 2345 393C2343.01 394.747 2341.05 396.353 2338.94 397.938C2338.35 398.386 2337.76 398.834 2337.15 399.295C2331.94 403.175 2326.75 405.825 2320.77 408.383C2318.23 409.465 2315.71 410.569 2313.2 411.684C2303.92 415.719 2294.87 418.459 2284.99 420.553C2282 421.226 2279.07 422.091 2276.12 422.938C2258.06 427.727 2239.77 430.376 2221.19 432.128C2220.26 432.216 2219.34 432.303 2218.38 432.394C2198.41 434.236 2178.57 434.554 2158.53 434.464C2153.49 434.446 2148.44 434.453 2143.39 434.456C2133.67 434.458 2123.95 434.439 2114.23 434.414C2102.95 434.384 2091.66 434.382 2080.38 434.378C2050.69 434.358 2021 434.302 1991.31 434.25C1924.88 434.167 1858.45 434.085 1790 434C1790 290.78 1790 147.56 1790 -5.96046e-07ZM1924 127C1924 187.06 1924 247.12 1924 309C2030.26 309 2136.52 309 2246 309C2246 248.94 2246 188.88 2246 127C2139.74 127 2033.48 127 1924 127Z" fill="black"/>
<path class="s" d="M2659.35 -0.514334C2665.56 -0.499341 2671.77 -0.504615 2677.97 -0.521542C2713.08 -0.614654 2748.12 -0.508608 2783.16 1.78119C2784.39 1.85885 2785.61 1.93651 2786.87 2.01653C2801.68 2.98771 2816.13 4.78058 2830.71 7.57479C2833.8 8.14808 2836.89 8.61444 2840 9.06244C2847.05 10.1276 2854.03 11.4935 2861 12.9999C2861.81 13.174 2862.62 13.348 2863.46 13.5273C2875.4 16.1263 2886.71 19.3179 2898 23.9999C2898.69 24.276 2899.38 24.552 2900.09 24.8364C2908.64 28.2588 2915.97 31.9418 2923 37.9999C2924.27 38.8804 2925.54 39.7553 2926.81 40.6249C2939.32 50.0678 2949.08 63.4707 2954.35 78.194C2955.12 80.3381 2956.03 82.4106 2956.94 84.4999C2965.54 106.047 2965 127.849 2965 151C2916.82 151 2868.64 151 2819 151C2819 142.75 2819 134.5 2819 126C2734.19 126 2649.38 126 2562 126C2562 132.6 2562 139.2 2562 146C2562.99 146.33 2563.98 146.66 2565 147C2565.74 147.784 2566.48 148.567 2567.25 149.375C2578.23 159.859 2599 159.187 2613.16 160.688C2615.43 160.937 2617.7 161.228 2619.96 161.531C2625.74 162.271 2631.56 162.515 2637.37 162.875C2647.15 163.507 2656.85 164.364 2666.56 165.562C2673.78 166.45 2680.92 167.189 2688.19 167.437C2697.82 167.787 2707.36 168.797 2716.94 169.812C2731.78 171.385 2746.63 172.818 2761.5 174.125C2762.46 174.21 2763.42 174.295 2764.41 174.382C2773.1 175.147 2781.78 175.902 2790.46 176.625C2799.17 177.352 2807.79 178.161 2816.43 179.504C2820.88 180.122 2825.34 180.525 2829.81 180.937C2836.92 181.604 2843.89 182.576 2850.9 183.892C2856.8 184.995 2862.7 185.778 2868.65 186.535C2871.47 186.927 2874.22 187.409 2877 188C2881.25 188.892 2885.52 189.577 2889.81 190.187C2891.06 190.367 2892.3 190.546 2893.58 190.73C2896.86 191.174 2896.86 191.174 2899.39 190.387C2903.56 189.77 2907.06 191.294 2911 192.625C2911.84 192.902 2912.69 193.179 2913.56 193.465C2926.31 197.702 2938.93 202.201 2950 210C2951.05 210.681 2952.1 211.361 2953.19 212.062C2955.47 213.633 2957.15 214.989 2959 217C2959.72 217.681 2960.44 218.361 2961.19 219.062C2973.24 231.193 2978.03 243.792 2981.12 260.312C2981.29 261.16 2981.46 262.008 2981.64 262.881C2984.01 275.37 2984.21 287.953 2984.19 300.625C2984.19 301.748 2984.19 301.748 2984.19 302.894C2984.16 314.369 2983.83 325.654 2982 337C2981.87 337.864 2981.73 338.728 2981.59 339.618C2979.2 354.624 2975.35 367.163 2967 380C2966.48 380.846 2965.95 381.691 2965.41 382.562C2961.18 389.082 2956.25 393.447 2950 398C2949.43 398.459 2948.85 398.919 2948.26 399.393C2943.11 403.454 2937.79 406.326 2931.81 409C2930.86 409.429 2929.9 409.859 2928.92 410.301C2914.48 416.601 2899.54 420.264 2884.01 422.66C2881.88 423.02 2879.78 423.468 2877.67 423.922C2869.66 425.543 2861.54 426.484 2853.44 427.5C2852.56 427.611 2851.68 427.722 2850.77 427.836C2836.39 429.626 2822.06 430.874 2807.59 431.56C2802.24 431.819 2796.89 432.132 2791.55 432.508C2765.51 434.274 2739.5 434.308 2713.42 434.261C2707.12 434.249 2700.82 434.256 2694.53 434.268C2663.18 434.316 2631.93 433.663 2600.61 432.126C2595.43 431.876 2590.25 431.652 2585.07 431.426C2569.67 430.748 2554.66 429.222 2539.48 426.433C2536.12 425.847 2532.76 425.451 2529.37 425.062C2514.98 423.195 2500.05 420.556 2487 414C2486.15 413.587 2485.3 413.175 2484.42 412.75C2482.75 411.929 2481.08 411.092 2479.43 410.238C2477.81 409.411 2476.16 408.616 2474.51 407.855C2462.13 402.09 2453.01 392.871 2445 382C2444.54 381.395 2444.09 380.791 2443.62 380.168C2439.57 374.33 2437.61 367.671 2435.58 360.931C2435.05 359.175 2434.5 357.427 2433.94 355.68C2431.5 347.469 2430.06 339.142 2428.75 330.687C2428.57 329.629 2428.4 328.57 2428.22 327.48C2426.38 314.791 2427 303.205 2427 290C2472.54 290 2518.08 290 2565 290C2565 295.61 2565 301.22 2565 307C2649.81 307 2734.62 307 2822 307C2822 302.38 2822 297.76 2822 293C2821.01 292.67 2820.02 292.34 2819 292C2818.73 291.381 2818.46 290.762 2818.19 290.125C2816.41 286.944 2814.36 286.402 2811 285C2807.64 284.122 2804.25 283.581 2800.81 283.062C2799.72 282.897 2798.64 282.731 2797.52 282.561C2769.6 278.639 2741.2 277.285 2713.07 275.828C2702.08 275.255 2691.16 274.287 2680.22 273.105C2670.82 272.114 2661.43 271.507 2652 271C2640.91 270.4 2630 269.365 2619.02 267.715C2614.02 266.973 2609.03 266.496 2604 266.062C2584.58 264.341 2565.14 261.738 2546 258C2545.26 257.863 2544.51 257.727 2543.74 257.586C2537.12 256.335 2530.72 254.569 2524.25 252.687C2515.94 250.301 2507.64 248.186 2499.19 246.375C2487.03 243.715 2475.94 239.77 2466 232C2466 231.34 2466 230.68 2466 230C2465.27 229.907 2464.54 229.814 2463.79 229.719C2460.54 228.881 2458.93 227.656 2456.37 225.5C2455.52 224.783 2454.66 224.067 2453.78 223.328C2452.86 222.56 2451.94 221.792 2451 221C2449.99 220.211 2448.98 219.422 2447.94 218.609C2446.95 217.831 2445.96 217.052 2444.94 216.25C2444.02 215.533 2443.1 214.817 2442.15 214.078C2439.96 211.966 2439.33 210.97 2439 208C2438.34 208 2437.68 208 2437 208C2425.02 184.638 2419.57 162.279 2419.69 135.937C2419.69 135.124 2419.69 134.31 2419.69 133.472C2419.73 120.745 2420.51 108.504 2423 95.9999C2423.29 94.3492 2423.59 92.6981 2423.88 91.0468C2427.73 70.1967 2435.47 52.7732 2452 38.9999C2452.8 38.1956 2453.61 37.3912 2454.44 36.5624C2467.26 23.737 2482.5 17.0899 2500 12.9999C2501 12.7663 2501.99 12.5327 2503.02 12.2919C2506.45 11.4961 2509.88 10.7139 2513.31 9.93744C2514.39 9.69196 2515.47 9.44647 2516.58 9.19355C2563.63 -1.24495 2611.44 -0.643455 2659.35 -0.514334Z" fill="black"/>
<path class="a" d="M3193.07 -0.258179C3193.93 -0.252353 3194.78 -0.246527 3195.67 -0.240525C3196.58 -0.242234 3197.48 -0.243943 3198.42 -0.245703C3201.48 -0.249014 3204.54 -0.23797 3207.61 -0.227067C3209.79 -0.226503 3211.98 -0.226819 3214.17 -0.227952C3220.12 -0.228528 3226.08 -0.216737 3232.03 -0.202804C3238.25 -0.190334 3244.46 -0.189129 3250.68 -0.186753C3261.12 -0.181235 3271.56 -0.168728 3282 -0.150895C3292.75 -0.132544 3303.51 -0.118384 3314.26 -0.109879C3315.26 -0.109091 3315.26 -0.109091 3316.27 -0.108287C3319.59 -0.105677 3322.92 -0.103154 3326.24 -0.100663C3353.83 -0.0797363 3381.41 -0.044539 3409 -1.60933e-05C3410.27 2.53183 3411.55 5.06459 3412.82 7.59788C3413.35 8.66171 3413.35 8.66171 3413.9 9.74703C3416.98 15.8882 3419.79 22.126 3422.5 28.4375C3426.02 36.5337 3429.6 44.581 3433.45 52.5232C3434.92 55.5808 3436.26 58.6354 3437.41 61.8242C3439.23 66.7941 3441.56 71.4967 3443.88 76.25C3447.03 82.7917 3450.08 89.33 3452.8 96.0625C3456.68 105.569 3460.93 114.918 3465.3 124.208C3469.94 134.099 3474.42 144.077 3478.56 154.187C3480.63 159.204 3482.89 164.114 3485.21 169.019C3488.57 176.179 3491.77 183.416 3494.96 190.653C3496.03 193.07 3497.1 195.484 3498.18 197.898C3498.54 198.7 3498.89 199.502 3499.26 200.329C3499.94 201.853 3500.62 203.376 3501.3 204.9C3502.73 208.114 3504.14 211.333 3505.52 214.57C3507.06 218.147 3508.71 221.668 3510.38 225.187C3513.03 230.838 3515.52 236.535 3517.89 242.312C3520.51 248.661 3523.39 254.816 3526.5 260.937C3528.87 265.606 3530.97 270.287 3532.84 275.176C3534.42 279.019 3536.21 282.751 3538 286.5C3540.13 290.958 3542.23 295.386 3544 300C3545.73 304.511 3547.79 308.833 3549.88 313.187C3552.47 318.621 3554.89 324.069 3557.06 329.687C3559.02 334.711 3561.17 339.521 3563.62 344.312C3565.55 348.062 3567.38 351.751 3568.88 355.687C3570.77 360.656 3573.07 365.4 3575.38 370.187C3578.23 376.117 3580.92 382.056 3583.31 388.187C3585 392.507 3586.73 396.682 3588.87 400.789C3594.36 411.538 3599.18 422.549 3603 434C3550.2 434 3497.4 434 3443 434C3436.33 421.775 3436.33 421.775 3434.06 415.187C3431.72 408.613 3428.88 402.551 3425.68 396.344C3419 383.046 3419 383.046 3419 379C3339.14 379 3259.28 379 3177 379C3176.01 382.3 3175.02 385.6 3174 389C3173.01 390.32 3172.02 391.64 3171 393C3170.17 394.956 3169.41 396.939 3168.69 398.937C3166.52 404.759 3164.06 410.368 3161.41 415.988C3159.87 419.27 3158.4 422.578 3156.96 425.902C3155.71 428.636 3154.34 431.313 3153 434C3100.2 434 3047.4 434 2993 434C2998.53 420.732 2998.53 420.732 3001 416.062C3003.69 410.804 3005.79 405.439 3007.84 399.906C3008.8 397.507 3009.8 395.393 3011.12 393.187C3012.84 390.271 3014.03 387.434 3015.18 384.258C3018.46 375.252 3022.57 366.628 3026.7 357.991C3029.18 352.792 3031.47 347.556 3033.62 342.215C3035.46 337.935 3037.48 333.757 3039.5 329.562C3042.07 324.209 3044.51 318.895 3046.56 313.312C3048.61 307.737 3051.18 302.582 3053.91 297.319C3056.94 291.355 3059.37 285.222 3061.65 278.939C3063.07 275.113 3064.52 272.255 3067 269C3067.89 266.751 3068.71 264.475 3069.5 262.187C3072.45 253.919 3076.2 246.107 3080.04 238.22C3082.78 232.568 3085.36 226.91 3087.7 221.074C3089.49 216.837 3091.5 212.709 3093.5 208.562C3096.52 202.271 3099.22 195.984 3101.63 189.43C3103.71 184.22 3106.19 179.209 3108.63 174.159C3110.99 169.233 3113.16 164.286 3115.12 159.187C3117.51 153.041 3120.34 147.251 3123.35 141.391C3124.91 138.177 3126.21 134.977 3127.44 131.625C3129.29 126.593 3131.49 121.885 3133.94 117.125C3136.59 111.961 3138.98 106.796 3141.06 101.375C3143.46 95.161 3146.31 89.3129 3149.35 83.3906C3150.91 80.1772 3152.21 76.9773 3153.44 73.625C3155.6 67.7616 3158.28 62.2978 3161.12 56.7441C3163.74 51.6023 3165.98 46.4061 3168 41C3170.49 34.4787 3173.29 28.1445 3176.28 21.8384C3178.94 16.2049 3181.36 10.4888 3183.74 4.73045C3186.02 -0.201292 3187.85 -0.231449 3193.07 -0.258179ZM3296 109C3295.77 109.606 3295.54 110.212 3295.3 110.836C3293.55 115.334 3291.7 119.704 3289.5 124C3287.84 127.244 3286.37 130.474 3285.06 133.875C3283.63 137.593 3281.96 141.089 3280.12 144.625C3277.74 149.285 3275.83 153.961 3274.06 158.875C3271.7 165.429 3268.85 171.463 3265.64 177.656C3264.1 180.794 3262.83 183.908 3261.62 187.187C3259.22 193.718 3256.25 199.919 3253.24 206.184C3250.93 210.986 3248.79 215.793 3246.88 220.766C3244.61 226.538 3241.96 232.155 3239.12 237.668C3238.64 238.606 3238.64 238.606 3238.15 239.563C3237.23 241.358 3236.29 243.146 3235.36 244.934C3233.73 248.051 3233.73 248.051 3234 252C3275.58 252 3317.16 252 3360 252C3357.18 240.715 3352.16 229.937 3346.85 219.627C3344.37 214.812 3342.23 209.928 3340.2 204.906C3338.93 201.83 3337.54 198.826 3336.12 195.812C3333.79 190.827 3331.68 185.791 3329.62 180.687C3327.34 175.028 3324.85 169.552 3322.06 164.125C3318.68 157.548 3315.76 150.846 3312.94 144.012C3310.34 137.736 3307.52 131.598 3304.6 125.465C3302.59 121.104 3300.79 116.67 3299.04 112.195C3298.2 109.845 3298.2 109.845 3296 109Z" fill="black"/>
<path class="l" d="M3638 0C3683.54 0 3729.08 0 3776 0C3776 98.01 3776 196.02 3776 297C3881.6 297 3987.2 297 4096 297C4096 342.21 4096 387.42 4096 434C3944.86 434 3793.72 434 3638 434C3638 290.78 3638 147.56 3638 0Z" fill="black"/>
</svg>
