<svg width="592" height="434" viewBox="0 0 592 434" fill="none" xmlns="http://www.w3.org/2000/svg">
<path d="M214.801 -0.572923C219.864 -0.566466 224.927 -0.567798 229.99 -0.574162C231.084 -0.575515 231.084 -0.575515 232.2 -0.576895C233.682 -0.578746 235.165 -0.580609 236.647 -0.582482C250.458 -0.598949 264.269 -0.590438 278.081 -0.573496C290.618 -0.558826 303.156 -0.573411 315.693 -0.602267C328.675 -0.631914 341.656 -0.642559 354.638 -0.633084C356.116 -0.632062 357.595 -0.631068 359.073 -0.630101C359.8 -0.629625 360.526 -0.629148 361.275 -0.628657C366.308 -0.626525 371.34 -0.636219 376.372 -0.650872C416.705 -0.7604 454.704 1.54722 494 11C495.558 11.3655 495.558 11.3655 497.147 11.7383C524.824 18.2784 549.465 28.656 568 51C568.66 51.7425 569.32 52.485 570 53.25C591.221 82.4287 592 117.408 592 152C547.12 152 502.24 152 456 152C456 143.75 456 135.5 456 127C349.74 127 243.48 127 134 127C134 186.4 134 245.8 134 307C239.93 307 345.86 307 455 307C455 296.11 455 285.22 455 274C401.87 274 348.74 274 294 274C294 243.31 294 212.62 294 181C331.692 180.978 369.383 180.96 407.075 180.949C411.52 180.948 415.965 180.946 420.41 180.945C421.295 180.945 422.18 180.945 423.092 180.944C437.44 180.94 451.789 180.932 466.137 180.923C480.849 180.914 495.561 180.908 510.272 180.906C519.358 180.905 528.443 180.9 537.528 180.892C543.75 180.887 549.971 180.885 556.193 180.887C559.788 180.887 563.383 180.886 566.978 180.881C570.866 180.875 574.754 180.877 578.642 180.88C580.366 180.875 580.366 180.875 582.124 180.871C583.157 180.873 584.19 180.875 585.254 180.877C586.153 180.877 587.052 180.876 587.978 180.876C590 181 590 181 591 182C591.105 183.709 591.14 185.423 591.147 187.135C591.158 188.806 591.158 188.806 591.169 190.511C591.173 192.361 591.173 192.361 591.177 194.249C591.187 196.186 591.187 196.186 591.197 198.162C591.218 202.466 591.228 206.77 591.238 211.074C591.242 212.561 591.246 214.048 591.251 215.535C591.27 222.54 591.284 229.546 591.292 236.551C591.302 244.592 591.328 252.632 591.369 260.673C591.399 266.909 591.414 273.146 591.417 279.382C591.419 283.094 591.428 286.806 591.453 290.518C591.612 314.848 589.42 336.413 580 359C579.505 360.205 579.01 361.411 578.5 362.652C577.025 365.944 575.386 369.014 573.562 372.125C572.986 373.118 572.41 374.11 571.816 375.133C570.039 377.938 568.124 380.45 566 383C565.435 383.692 564.871 384.384 564.289 385.098C560.827 389.186 557.564 392.122 553 395C552.278 395.763 551.556 396.526 550.812 397.313C544.782 403.075 537.574 407.103 529.777 409.973C527.058 410.979 524.392 412.087 521.718 413.209C513.644 416.559 505.506 418.953 497 421C495.613 421.342 494.227 421.685 492.84 422.027C484.563 424.045 476.263 425.778 467.879 427.289C465.122 427.794 462.391 428.338 459.65 428.913C432.766 434.266 405.889 434.582 378.585 434.471C373.194 434.454 367.802 434.457 362.41 434.458C353.36 434.456 344.309 434.439 335.259 434.412C324.914 434.38 314.57 434.37 304.225 434.371C293.05 434.372 281.874 434.358 270.699 434.34C267.553 434.336 264.406 434.335 261.26 434.334C235.837 434.321 210.531 433.744 185.151 432.242C180.062 431.942 174.972 431.683 169.881 431.426C139.236 429.7 107.032 423.976 78 414C77.0564 413.684 76.1128 413.368 75.1406 413.043C50.1841 404.367 50.1841 404.367 41 396C41 395.34 41 394.68 41 394C40.2781 393.773 39.5562 393.546 38.8125 393.313C35.4513 391.744 33.4466 389.695 31 387C30.3284 386.309 29.6568 385.618 28.9648 384.906C14.415 369.533 6.00444 349.616 1.99997 329C1.83373 328.232 1.66748 327.464 1.49619 326.673C-0.40428 316.931 -0.303971 307.282 -0.306422 297.4C-0.314057 295.439 -0.322486 293.477 -0.331645 291.516C-0.353479 286.216 -0.362376 280.915 -0.367472 275.615C-0.371132 272.291 -0.377377 268.966 -0.384471 265.642C-0.408935 254.007 -0.422011 242.372 -0.425563 230.737C-0.429187 219.955 -0.459017 209.173 -0.500972 198.39C-0.535883 189.086 -0.55112 179.782 -0.551814 170.478C-0.5526 164.942 -0.56103 159.407 -0.589808 153.871C-0.858011 98.9224 -0.858009 98.9224 9.99997 76C10.4391 75.0441 10.4391 75.0441 10.8872 74.0689C14.7946 65.6044 18.9426 58.1386 25 51C26.1261 49.4592 27.2511 47.9175 28.375 46.375C31.9891 41.7109 36.2564 38.4446 41 35C41.7631 34.3542 42.5262 33.7084 43.3125 33.043C46.4772 30.6373 49.8196 28.8652 53.375 27.125C54.0754 26.7799 54.7759 26.4347 55.4975 26.0791C105.059 2.01632 160.796 -0.64361 214.801 -0.572923Z" fill="black"/>
</svg>
